<?xml version="1.0" encoding="iso-8859-1"?>
<!-- Generator: Adobe Illustrator 19.0.0, SVG Export Plug-In . SVG Version: 6.00 Build 0)  -->
<svg version="1.1" id="Capa_1" xmlns="http://www.w3.org/2000/svg" xmlns:xlink="http://www.w3.org/1999/xlink" x="0px" y="0px"
	 viewBox="0 0 496 496" style="enable-background:new 0 0 496 496;" xml:space="preserve">
<g>
	<g>
		<path d="M488,238.4h-40v-24c0-4.8-3.2-8-8-8h-8v-24c0-4.8-3.2-8-8-8h-24v16h16v16h-48v-32h-16v32h-48v-16h16v-16h-24
			c-4.8,0-8,3.2-8,8v24h-8c-4.8,0-8,3.2-8,8v24h-48v-24c0-4.8-3.2-8-8-8h-8v-24c0-4.8-3.2-8-8-8h-24v16h16v16h-48v-32h-16v32H80v-16
			h16v-16H72c-4.8,0-8,3.2-8,8v24h-8c-4.8,0-8,3.2-8,8v24H8c-4.8,0-8,3.2-8,8v192c0,4.8,3.2,8,8,8h48c4.8,0,8-3.2,8-8v-56h368v56
			c0,4.8,3.2,8,8,8h48c4.8,0,8-3.2,8-8v-192C496,241.6,492.8,238.4,488,238.4z M288,222.4h144v16H288V222.4z M64,222.4h144v16H64
			V222.4z M48,430.4H16v-16h32V430.4z M48,398.4H16v-16h32V398.4z M480,430.4h-32v-16h32V430.4z M480,398.4h-32v-16h32V398.4z
			 M480,366.4H56H16v-16h464V366.4z M480,334.4H16v-80h40h424V334.4z"/>
	</g>
</g>
<g>
	<g>
		<path d="M136,270.4c-13.6,0-24,10.4-24,24c0,13.6,10.4,24,24,24c13.6,0,24-10.4,24-24C160,280.8,149.6,270.4,136,270.4z
			 M136,302.4c-4.8,0-8-3.2-8-8s3.2-8,8-8s8,3.2,8,8S140.8,302.4,136,302.4z"/>
	</g>
</g>
<g>
	<g>
		<rect x="80" y="286.4" width="16" height="16"/>
	</g>
</g>
<g>
	<g>
		<rect x="48" y="286.4" width="16" height="16"/>
	</g>
</g>
<g>
	<g>
		<path d="M360,270.4c-13.6,0-24,10.4-24,24c0,13.6,10.4,24,24,24c13.6,0,24-10.4,24-24C384,280.8,373.6,270.4,360,270.4z
			 M360,302.4c-4.8,0-8-3.2-8-8s3.2-8,8-8s8,3.2,8,8S364.8,302.4,360,302.4z"/>
	</g>
</g>
<g>
	<g>
		<rect x="304" y="286.4" width="16" height="16"/>
	</g>
</g>
<g>
	<g>
		<rect x="272" y="286.4" width="16" height="16"/>
	</g>
</g>
<g>
	<g>
		<rect x="208" y="286.4" width="16" height="16"/>
	</g>
</g>
<g>
	<g>
		<rect x="176" y="286.4" width="16" height="16"/>
	</g>
</g>
<g>
	<g>
		<rect x="432" y="286.4" width="16" height="16"/>
	</g>
</g>
<g>
	<g>
		<rect x="400" y="286.4" width="16" height="16"/>
	</g>
</g>
<g>
	<g>
		<path d="M120.8,108l-6.4-6.4c-1.6-1.6-2.4-3.2-2.4-5.6v-2.4c0-2.4,0.8-4,2.4-5.6l11.2-11.2l-11.2-11.2l-11.2,11.2
			c-4.8,4-7.2,9.6-7.2,16v2.4c0,6.4,2.4,12.8,7.2,16.8l6.4,7.2c1.6,1.6,2.4,3.2,2.4,5.6v2.4c0,2.4-0.8,4-2.4,5.6L98.4,144l11.2,11.2
			l11.2-11.2c4.8-4.8,7.2-10.4,7.2-16.8v-2.4C128,118.4,125.6,112,120.8,108z"/>
	</g>
</g>
<g>
	<g>
		<path d="M168.8,92l-6.4-6.4c-1.6-1.6-2.4-3.2-2.4-5.6v-2.4c0-2.4,0.8-4,2.4-5.6l11.2-11.2l-11.2-11.2l-11.2,11.2
			c-4.8,4-7.2,9.6-7.2,16v2.4c0,6.4,2.4,12.8,7.2,16.8l6.4,7.2c1.6,1.6,2.4,3.2,2.4,5.6v2.4c0,2.4-0.8,4-2.4,5.6L146.4,128
			l11.2,11.2l11.2-11.2c4.8-4.8,7.2-10.4,7.2-16.8v-2.4C176,102.4,173.6,96,168.8,92z"/>
	</g>
</g>
<g>
	<g>
		<path d="M344.8,108l-6.4-6.4c-1.6-1.6-2.4-3.2-2.4-5.6v-2.4c0-2.4,0.8-4,2.4-5.6l11.2-11.2l-11.2-11.2l-11.2,11.2
			c-4.8,4-7.2,9.6-7.2,16v2.4c0,6.4,2.4,12.8,7.2,16.8l6.4,7.2c1.6,1.6,2.4,3.2,2.4,5.6v2.4c0,2.4-0.8,4-2.4,5.6L322.4,144
			l11.2,11.2l11.2-11.2c4.8-4.8,7.2-10.4,7.2-16.8v-2.4C352,118.4,349.6,112,344.8,108z"/>
	</g>
</g>
<g>
	<g>
		<path d="M392.8,92l-6.4-6.4c-1.6-1.6-2.4-3.2-2.4-5.6v-2.4c0-2.4,0.8-4,2.4-5.6l11.2-11.2l-11.2-11.2l-11.2,11.2
			c-4.8,4-7.2,9.6-7.2,16v2.4c0,6.4,2.4,12.8,7.2,16.8l6.4,7.2c1.6,1.6,2.4,3.2,2.4,5.6v2.4c0,2.4-0.8,4-2.4,5.6L370.4,128
			l11.2,11.2l11.2-11.2c4.8-4.8,7.2-10.4,7.2-16.8v-2.4C400,102.4,397.6,96,392.8,92z"/>
	</g>
</g>
<g>
</g>
<g>
</g>
<g>
</g>
<g>
</g>
<g>
</g>
<g>
</g>
<g>
</g>
<g>
</g>
<g>
</g>
<g>
</g>
<g>
</g>
<g>
</g>
<g>
</g>
<g>
</g>
<g>
</g>
</svg>
