<svg id="Layer_3" enable-background="new 0 0 64 64" height="512" viewBox="0 0 64 64" width="512" xmlns="http://www.w3.org/2000/svg"><path d="m15 7c-4.411 0-8 3.589-8 8s3.589 8 8 8 8-3.589 8-8-3.589-8-8-8zm0 14c-3.309 0-6-2.691-6-6s2.691-6 6-6 6 2.691 6 6-2.691 6-6 6z"/><path d="m52 23.963v-4.053c2.833-.478 5-2.942 5-5.91 0-3.309-2.691-6-6-6s-6 2.691-6 6c0 2.967 2.167 5.431 5 5.91v3.472c-1.129-.245-2.298-.382-3.5-.382h-8.5v-3.09c2.833-.478 5-2.942 5-5.91 0-3.309-2.691-6-6-6s-6 2.691-6 6c0 2.967 2.167 5.431 5 5.91v3.09h-9.264c1.462-2.258 2.264-4.91 2.264-7.615v-.385c0-3.971-1.696-7.77-4.652-10.423-2.998-2.69-6.872-3.929-10.908-3.492-7.092.769-12.44 6.909-12.44 14.3 0 3.205 1.113 6.341 3.134 8.828l10.09 12.418c.19.233.475.369.776.369h31.5c1.379 0 2.5 1.121 2.5 2.5s-1.121 2.5-2.5 2.5h-14.5c-11.579 0-21 9.421-21 21h2c0-10.477 8.523-19 19-19h14.5c2.481 0 4.5-2.019 4.5-4.5s-2.019-4.5-4.5-4.5h-29.398l3.25-4h1.648v-2h-.023l3.25-4h21.273c7.995 0 14.5 6.505 14.5 14.5s-6.505 14.5-14.5 14.5h-14.5c-4.963 0-9 4.037-9 9h2c0-3.859 3.141-7 7-7h14.5c9.098 0 16.5-7.402 16.5-16.5 0-7.167-4.602-13.265-11-15.537zm-5-9.963c0-2.206 1.794-4 4-4s4 1.794 4 4c0 1.859-1.279 3.411-3 3.858v-2.444l1.707-1.707-1.414-1.414-2 2c-.188.187-.293.441-.293.707v2.858c-1.721-.447-3-1.999-3-3.858zm-14 0c0-2.206 1.794-4 4-4s4 1.794 4 4c0 1.859-1.279 3.411-3 3.858v-2.444l1.707-1.707-1.414-1.414-2 2c-.188.187-.293.441-.293.707v2.858c-1.721-.447-3-1.999-3-3.858zm-18 20.414-9.313-11.463c-1.733-2.132-2.687-4.819-2.687-7.584 0-6.35 4.58-11.636 10.654-12.294.457-.05.911-.074 1.361-.074 2.967 0 5.766 1.065 7.996 3.066 2.535 2.276 3.989 5.532 3.989 8.935v.385c0 2.747-.954 5.435-2.687 7.566z"/><path d="m17 63h2c0-.623.044-1.247.132-1.854l-1.98-.285c-.101.701-.152 1.421-.152 2.139z"/><path d="m25.887 29h3.862v2h-3.862z"/><path d="m41.334 29h3.862v2h-3.862z"/><path d="m18.295 56.895 1.826.814c.486-1.09 1.123-2.11 1.893-3.033l-1.535-1.281c-.888 1.063-1.623 2.241-2.184 3.5z"/><path d="m33.61 29h3.862v2h-3.862z"/><path d="m56.965 38.635c-.117-1.435-.519-2.804-1.194-4.068l-1.764.941c.545 1.022.87 2.129.964 3.289z"/><path d="m54.324 46.503c.96-1.071 1.679-2.304 2.134-3.663l-1.896-.635c-.368 1.099-.949 2.096-1.728 2.964z"/><path d="m48.761 31.304c1.117.308 2.145.833 3.055 1.562l1.25-1.561c-1.123-.9-2.393-1.55-3.773-1.93z"/><path d="m27.217 48.779c-1.307.439-2.549 1.059-3.69 1.841l1.131 1.65c.989-.679 2.064-1.215 3.196-1.595z"/><path d="m50.077 47.214c-1.051.487-2.174.751-3.339.782l.055 2c1.438-.039 2.826-.365 4.126-.968z"/><path d="m35.181 50v-2h-3.177c-.231-.004-.49.005-.733.017l.096 1.998c.207-.011.416-.013.633-.015z"/><path d="m39.042 48h3.862v2h-3.862z"/></svg>