<svg height="480pt" viewBox="0 -24 480 480" width="480pt" xmlns="http://www.w3.org/2000/svg"><path d="m64 80h128v-48h-128zm16-32h96v16h-96zm0 0"/><path d="m232 32c-13.253906 0-24 10.746094-24 24s10.746094 24 24 24 24-10.746094 24-24-10.746094-24-24-24zm0 32c-4.417969 0-8-3.582031-8-8s3.582031-8 8-8 8 3.582031 8 8-3.582031 8-8 8zm0 0"/><path d="m32 32h16v16h-16zm0 0"/><path d="m32 64h16v16h-16zm0 0"/><path d="m144 144c-61.855469 0-112 50.144531-112 112s50.144531 112 112 112 112-50.144531 112-112c-.066406-61.828125-50.171875-111.933594-112-112zm0 208c-53.019531 0-96-42.980469-96-96s42.980469-96 96-96 96 42.980469 96 96c-.058594 52.996094-43.003906 95.941406-96 96zm0 0"/><path d="m144 176c-44.183594 0-80 35.816406-80 80s35.816406 80 80 80 80-35.816406 80-80c-.046875-44.164062-35.835938-79.953125-80-80zm0 144c-14.207031 0-28.007812-4.753906-39.199219-13.503906l36.839844-36.800782-11.3125-11.3125-36.800781 36.839844c-16.382813-20.925781-18.089844-49.8125-4.277344-72.519531 13.808594-22.707031 40.242188-34.480469 66.359375-29.558594l-49.242187 49.238281 11.3125 11.3125 54.863281-54.863281c10.617187 5.316407 19.554687 13.472657 25.816406 23.558594l-44 44 11.3125 11.3125 39.710937-39.710937c5.714844 19.34375 1.960938 40.25-10.125 56.398437-12.085937 16.148437-31.085937 25.640625-51.257812 25.609375zm0 0"/><path d="m440 120h-16v-16h-16v16h-16c-22.082031.027344-39.972656 17.917969-40 40v40h-16v16h16v80h-32v-8c0-4.417969-3.582031-8-8-8h-24v-280h-288v432h336v-16h-48v-56h24c4.417969 0 8-3.582031 8-8v-8h40c22.082031-.027344 39.972656-17.917969 40-40v-88h16v-16h-16v-32h32v96h-16v16h16v48c0 4.417969 3.582031 8 8 8h32c4.417969 0 8-3.582031 8-8v-168c-.027344-22.082031-17.917969-39.972656-40-40zm-424-104h256v80h-256zm32 400v-16h48v16zm64 0v-32h-80v32h-16v-304h256v304zm192-72h-16v-48h16zm80-40c0 13.253906-10.746094 24-24 24h-40v-16h40c4.417969 0 8-3.582031 8-8v-88h16zm8-152c-4.417969 0-8 3.582031-8 8v40h-16v-40c0-13.253906 10.746094-24 24-24h16v16zm48 0h-16v-16h16c13.253906 0 24 10.746094 24 24v104h-16v-104c0-4.417969-3.582031-8-8-8zm8 168v-40h16v40zm0 0"/><path d="m352 416h16v16h-16zm0 0"/><path d="m384 416h96v16h-96zm0 0"/></svg>