<svg id="Capa_1" enable-background="new 0 0 512 512" height="512" viewBox="0 0 512 512" width="512" xmlns="http://www.w3.org/2000/svg"><path d="m481 300v-300h-210v270h-30v90h34.188l15.13 45.389-30.777-15.389h-51.83l-26.711-106.846v-253.154h-150v240h-31v242h512v-212zm-180-270h150v270h-68.787l-15-15 15-15h38.787v-75h-30v45h-21.213l-30 30h-38.787zm-240 30h90v210h-30v-60h-30v60h-30zm-31 422v-62h67.972l25.547 38.321 24.962-16.641-34.453-51.68h-23.028v-60h-30v60h-31v-90h124.289l30 120h68.17l89.223 44.611-44.87-134.611h-25.812v-30h68.787l30 30h112.213v30h-84.028l-34.453 51.679 24.962 16.641 25.547-38.32h67.972v92z"/><path d="m331 180h30v30h-30z"/><path d="m91 150h30v30h-30z"/><path d="m91 90h30v30h-30z"/><path d="m391 120h30v30h-30z"/><path d="m331 120h30v30h-30z"/><path d="m331 60h30v30h-30z"/><path d="m391 60h30v30h-30z"/></svg>