<?xml version="1.0" encoding="utf-8"?>
<!-- Generator: Adobe Illustrator 22.0.0, SVG Export Plug-In . SVG Version: 6.00 Build 0)  -->
<svg version="1.1" id="Layer_1" xmlns="http://www.w3.org/2000/svg" xmlns:xlink="http://www.w3.org/1999/xlink" x="0px" y="0px"
	 viewBox="0 0 247.5 105" style="enable-background:new 0 0 247.5 105;" xml:space="preserve">
<style type="text/css">
	.st0{fill:#196BAB;}
	.st1{fill:#FFFFFF;}
	.st2{fill:#196BAC;}
	.st3{fill:#F9BC15;}
	.st4{fill:#EA4435;}
	.st5{fill:#E94435;}
	.st6{fill:#231F20;}
</style>
<rect x="-214.5" y="0" class="st0" width="135" height="105"/>
<g>
	<g>
		<g>
			<path class="st1" d="M-149,26.9C-149,26.9-148.9,26.9-149,26.9c0.4,0,0.7,0,1-0.1c0.2,0,0.4,0,0.6-0.1c0.1,0,0.3-0.1,0.4-0.1
				c0.2-0.1,0.3-0.1,0.4-0.2c0.1-0.1,0.2-0.2,0.2-0.4c0-0.2,0-0.4,0-0.6c0-0.2-0.1-0.4-0.3-0.6c-0.1-0.1-0.3-0.1-0.4-0.2
				c-0.3-0.1-0.6-0.1-0.8,0c-0.2,0-0.4,0.1-0.5,0.1c-0.1,0-0.3,0.1-0.4,0.1c-0.2,0.1-0.4,0.2-0.6,0.3c-0.1,0.1-0.3,0.2-0.4,0.3
				c-0.1,0.1-0.1,0.1-0.2,0.2c-0.4-0.5-0.8-1.1-1.2-1.6c0.1-0.1,0.3-0.2,0.4-0.3c0.1-0.1,0.2-0.1,0.3-0.2c0.1-0.1,0.2-0.1,0.3-0.1
				c0.1-0.1,0.3-0.1,0.4-0.2c0.1,0,0.1-0.1,0.2-0.1c0.2-0.1,0.4-0.1,0.5-0.2c0.1,0,0.2,0,0.3-0.1c0.1,0,0.3,0,0.4-0.1
				c0.2,0,0.4,0,0.5,0c0.1,0,0.3,0,0.4,0c0.2,0,0.3,0.1,0.5,0.1c0.2,0.1,0.3,0.1,0.5,0.3c0.2,0.1,0.3,0.2,0.4,0.4
				c0.1,0.1,0.2,0.2,0.3,0.4c0.1,0.1,0.1,0.2,0.2,0.3c0,0.1,0.1,0.2,0.1,0.3c0.1,0.2,0.1,0.4,0.2,0.6c0,0.3,0.1,0.5,0,0.8
				c0,0.2-0.1,0.3-0.1,0.5c0,0.1-0.1,0.2-0.1,0.2c0,0.1-0.1,0.2-0.1,0.2c-0.1,0.1-0.2,0.2-0.2,0.3c-0.1,0.1-0.2,0.2-0.3,0.3
				c-0.1,0.1-0.2,0.2-0.4,0.2c0,0-0.1,0-0.2,0.1c0.1,0.1,0.3,0.1,0.4,0.2c0.1,0.1,0.2,0.2,0.3,0.3c0.1,0.1,0.1,0.1,0.2,0.1
				c0.1,0,0.2,0,0.3,0c0.1,0,0.2-0.1,0.4-0.1c0.1-0.1,0.2-0.1,0.3-0.2c0.1-0.1,0.2-0.1,0.2-0.2c0.1-0.1,0.2-0.3,0.3-0.4
				c0.1-0.1,0.2-0.2,0.2-0.3c0.1-0.1,0.1-0.2,0.1-0.3c0.1-0.1,0.2-0.3,0.2-0.4c0.1-0.1,0.1-0.2,0.2-0.3c0.1-0.1,0.1-0.2,0.2-0.3
				c0.1-0.1,0.2-0.2,0.3-0.3c0.1-0.1,0.2-0.2,0.2-0.2c0.1-0.1,0.2-0.2,0.4-0.2c0.1-0.1,0.2-0.1,0.4-0.1c0.1,0,0.2,0,0.3,0
				c0.2,0,0.4,0,0.6,0.1c0.2,0,0.4,0.1,0.6,0.2c0.1,0.1,0.3,0.1,0.4,0.2c0.1,0.1,0.3,0.2,0.4,0.3c0.1,0.1,0.2,0.2,0.3,0.3
				c0.1,0.1,0.2,0.3,0.3,0.4c0.1,0.1,0.1,0.2,0.2,0.3c0.1,0.2,0.1,0.3,0.2,0.5c0.1,0.2,0.1,0.3,0.1,0.5c0,0.2,0.1,0.5,0.1,0.7
				c0.1,0.3,0,0.6,0,0.9c0,0.1,0,0.3,0,0.4c0,0.2-0.1,0.3-0.1,0.5c0,0.1-0.1,0.3-0.1,0.4c-0.1,0.2-0.1,0.3-0.2,0.5
				c-0.1,0.2-0.1,0.3-0.2,0.4c-0.1,0.1-0.2,0.2-0.3,0.4c-0.1,0.1-0.2,0.2-0.3,0.3c-0.1,0.1-0.1,0.1-0.2,0.1
				c-0.1,0.1-0.3,0.2-0.4,0.2c-0.1,0-0.1,0.1-0.2,0.1c-0.1,0-0.3,0.1-0.4,0.1c-0.2,0-0.4,0-0.6,0c-0.1,0-0.1,0-0.2,0
				c-0.2,0-0.4-0.1-0.6-0.2c-0.1-0.1-0.2-0.1-0.3-0.2c-0.1-0.1-0.2-0.2-0.3-0.3c-0.1-0.1-0.2-0.2-0.3-0.3c-0.1-0.1-0.1-0.2-0.2-0.3
				c-0.1-0.1-0.1-0.3-0.2-0.4c0-0.1-0.1-0.2-0.1-0.2c0-0.1-0.1-0.2-0.1-0.3c0-0.1,0-0.3-0.1-0.4c0,0,0,0,0,0
				c0.1,0.1,0.2,0.3,0.4,0.4c0.1,0.1,0.2,0.2,0.4,0.3c0.1,0.1,0.3,0.2,0.4,0.3c0.2,0.1,0.4,0.2,0.6,0.2c0.2,0,0.3,0,0.5,0
				c0.2,0,0.3-0.1,0.4-0.1c0.1-0.1,0.2-0.1,0.3-0.2c0.1-0.1,0.1-0.1,0.2-0.2c0.1-0.1,0.2-0.2,0.2-0.3c0.1-0.2,0.2-0.3,0.3-0.5
				c0.1-0.1,0.1-0.3,0.2-0.4c0-0.1,0.1-0.3,0.1-0.4c0-0.2,0-0.3,0.1-0.5c0-0.1,0-0.3,0-0.4c0-0.2,0-0.5-0.1-0.7
				c0-0.2-0.1-0.3-0.1-0.5c-0.1-0.2-0.1-0.4-0.2-0.6c-0.1-0.2-0.2-0.3-0.4-0.4c-0.1,0-0.2,0-0.3,0c-0.1,0-0.3,0.1-0.4,0.2
				c-0.2,0.1-0.3,0.2-0.4,0.3c-0.1,0.1-0.2,0.2-0.2,0.3c-0.1,0.1-0.1,0.3-0.2,0.4c-0.1,0.1-0.1,0.2-0.1,0.3
				c-0.1,0.1-0.1,0.2-0.2,0.3c0,0.1-0.1,0.2-0.2,0.3c-0.1,0.1-0.1,0.2-0.2,0.3c-0.1,0.1-0.1,0.1-0.2,0.2c-0.1,0.1-0.1,0.1-0.2,0.2
				c-0.1,0.1-0.3,0.1-0.4,0.2c-0.1,0-0.2,0.1-0.3,0.1c-0.3,0.1-0.5,0.1-0.8,0c-0.2,0-0.4-0.1-0.6-0.1c0,0,0,0,0,0
				c0.1,0.1,0.2,0.3,0.3,0.4c0,0.1,0.1,0.1,0.1,0.2c0.1,0.1,0.1,0.3,0.1,0.4c0,0.1,0,0.2,0.1,0.3c0,0.2,0,0.3,0,0.5
				c0,0.2,0,0.4-0.1,0.5c0,0.1-0.1,0.3-0.1,0.4c-0.1,0.2-0.1,0.4-0.2,0.6c-0.1,0.1-0.2,0.3-0.3,0.4c-0.1,0.1-0.2,0.3-0.3,0.4
				c-0.1,0.1-0.2,0.2-0.3,0.3c-0.1,0.1-0.3,0.2-0.5,0.3c-0.1,0.1-0.3,0.1-0.4,0.2c-0.1,0-0.1,0.1-0.2,0.1c-0.1,0-0.3,0.1-0.4,0.1
				c-0.4,0.1-0.8,0.1-1.2,0c-0.2,0-0.3,0-0.5-0.1c-0.2,0-0.3-0.1-0.5-0.1c-0.2-0.1-0.3-0.1-0.5-0.2c-0.1-0.1-0.3-0.1-0.4-0.2
				c-0.1-0.1-0.2-0.2-0.3-0.3c-0.1-0.1-0.2-0.2-0.3-0.3c-0.1-0.1-0.1-0.2-0.2-0.3c-0.1-0.1-0.1-0.2-0.2-0.3
				c-0.1-0.1-0.1-0.2-0.1-0.2c-0.1-0.1-0.2-0.3-0.2-0.4c0-0.1-0.1-0.1-0.1-0.2c-0.1-0.1-0.1-0.3-0.1-0.4c0-0.1-0.1-0.3-0.1-0.4
				c0-0.2-0.1-0.4-0.1-0.6c0-0.2-0.1-0.3-0.1-0.5c0-0.2-0.1-0.4-0.1-0.6c0-0.1,0-0.1,0-0.2c0,0,0,0,0,0c0,0,0,0,0,0
				c0,0.1,0.1,0.2,0.1,0.3c0.1,0.1,0.1,0.2,0.1,0.4c0,0.1,0.1,0.2,0.1,0.2c0.1,0.1,0.1,0.2,0.2,0.4c0,0.1,0.1,0.2,0.1,0.3
				c0.1,0.1,0.1,0.3,0.2,0.4c0.1,0.1,0.1,0.2,0.2,0.3c0.1,0.1,0.2,0.2,0.3,0.3c0.1,0.1,0.2,0.2,0.3,0.3c0.1,0.1,0.2,0.2,0.3,0.2
				c0.1,0.1,0.3,0.1,0.4,0.2c0.1,0,0.1,0.1,0.2,0.1c0.1,0,0.3,0.1,0.4,0.1c0.2,0.1,0.5,0,0.7,0c0.2,0,0.3-0.1,0.5-0.1
				c0.1,0,0.2,0,0.3-0.1c0.2-0.1,0.3-0.1,0.5-0.2c0.1-0.1,0.2-0.1,0.3-0.2c0.1-0.1,0.2-0.2,0.3-0.3c0.1-0.1,0.2-0.2,0.3-0.3
				c0.1-0.1,0.1-0.2,0.1-0.3c0.1-0.1,0.1-0.3,0.1-0.4c0.1-0.2,0-0.4,0-0.6c0-0.1-0.1-0.3-0.1-0.4c-0.1-0.1-0.1-0.3-0.2-0.4
				c-0.1-0.1-0.2-0.2-0.3-0.3c-0.1-0.1-0.2-0.1-0.3-0.1c-0.2-0.1-0.3-0.1-0.5-0.2c-0.1,0-0.2,0-0.3-0.1c-0.1,0-0.2,0-0.3,0
				c0,0-0.1,0-0.1-0.1c-0.1-0.2-0.2-0.3-0.2-0.5c0-0.1-0.1-0.2-0.1-0.3c-0.1-0.2-0.2-0.3-0.2-0.5c0,0,0-0.1-0.1-0.1
				C-148.9,27.2-148.9,27.1-149,26.9C-149,26.9-149,26.9-149,26.9z"/>
			<path class="st1" d="M-146.4,21.4c0.1,0.1,0.2,0.1,0.2,0.2c0.1,0.1,0.2,0.2,0.3,0.2c0.1,0.1,0.2,0.1,0.2,0.2
				c0.1,0.1,0.1,0.1,0.2,0.1c0.1,0.1,0.3,0.2,0.4,0.2c0.1,0.1,0.2,0.1,0.3,0.1c0.1,0.1,0.3,0.1,0.4,0.2c0.2,0.1,0.4,0.1,0.5,0.1
				c0.4,0.1,0.8,0.1,1.1,0c0.1,0,0.3-0.1,0.4-0.1c0.1-0.1,0.3-0.1,0.4-0.2c0.1-0.1,0.2-0.1,0.3-0.2c0.1-0.1,0.2-0.1,0.2-0.2
				c0,0,0,0,0,0c0.1,0.2,0.3,0.3,0.4,0.5c0.1,0.1,0.2,0.2,0.3,0.3c0.1,0.1,0.1,0.2,0.2,0.3c0,0,0.1,0.1,0.1,0.1c0,0,0,0.1,0,0.1
				c-0.1,0.1-0.2,0.2-0.3,0.3c-0.1,0.1-0.3,0.2-0.4,0.3c-0.1,0.1-0.2,0.1-0.3,0.2c-0.1,0.1-0.2,0.1-0.4,0.1c-0.1,0-0.3,0.1-0.4,0.1
				c-0.3,0.1-0.6,0.1-0.9,0c-0.1,0-0.3,0-0.4-0.1c-0.1,0-0.3-0.1-0.4-0.1c-0.2-0.1-0.3-0.1-0.5-0.2c-0.1-0.1-0.3-0.2-0.4-0.3
				c-0.1-0.1-0.2-0.2-0.3-0.3c-0.1-0.1-0.2-0.2-0.3-0.3c-0.1-0.1-0.2-0.2-0.3-0.3c-0.1-0.1-0.1-0.2-0.2-0.3
				c-0.1-0.2-0.2-0.4-0.3-0.6c-0.1-0.1-0.1-0.3-0.2-0.4C-146.4,21.6-146.4,21.5-146.4,21.4C-146.4,21.4-146.4,21.4-146.4,21.4z"/>
			<path class="st1" d="M-143.8,20.2c0.1,0.1,0.1,0.1,0.2,0.1c0.1,0.1,0.2,0.1,0.3,0.2c0.1,0.1,0.2,0.2,0.3,0.2
				c0.1,0.1,0.2,0.1,0.3,0.2c0.1,0.1,0.1,0.1,0.2,0.2c0,0,0,0,0,0c-0.1,0.1-0.1,0.1-0.2,0.2c-0.1,0.1-0.2,0.2-0.3,0.3
				c-0.1,0.1-0.1,0.2-0.2,0.2c-0.1,0.1-0.2,0.2-0.3,0.3c0,0,0,0-0.1,0.1c0,0,0,0,0,0c-0.2-0.2-0.4-0.3-0.6-0.5
				c-0.1-0.1-0.2-0.2-0.3-0.3c-0.1-0.1-0.2-0.2-0.3-0.3C-144.6,21-144.2,20.6-143.8,20.2z"/>
		</g>
		<g>
			<path class="st1" d="M-143.5,38.4v53.8c0,0.5-0.4,1-1,1h-1.2c-0.5,0-1-0.4-1-1V67.9c0-0.5-0.4-1-1-1h-13.2c-0.5,0-1,0.4-1,1v24.4
				c0,0.5-0.4,1-1,1h-1.2c-0.5,0-1-0.4-1-1V38.4c0-0.5,0.4-1,1-1h1.2c0.5,0,1,0.4,1,1v24.4c0,0.5,0.4,1,1,1h13.2c0.5,0,1-0.4,1-1
				V38.4c0-0.5,0.4-1,1-1h1.2C-143.9,37.4-143.5,37.9-143.5,38.4z"/>
		</g>
		<g>
			<path class="st1" d="M-141.9,36.8v55.4c0,0.5,0.4,1,1,1h1.2c0.5,0,1-0.4,1-1V67.9c0-0.5,0.4-1,1-1h13.2c0.5,0,1,0.4,1,1v24.4
				c0,0.5,0.4,1,1,1h1.2c0.5,0,1-0.4,1-1V36.8c0-0.5-0.4-1-1-1h-19.5C-141.5,35.9-141.9,36.3-141.9,36.8z M-138.8,62.8V40
				c0-0.5,0.4-1,1-1h13.2c0.5,0,1,0.4,1,1v22.8c0,0.5-0.4,1-1,1h-13.2C-138.3,63.8-138.8,63.3-138.8,62.8z"/>
		</g>
		<g>
			<g>
				<path class="st1" d="M-119.1,34.4l-1.4,0.1c-0.2,0-0.5-0.1-0.7-0.2L-144,15.7c-0.4-0.3-0.9-0.3-1.3,0.1l-23.2,22.8l0,0
					l-25.2,24.9c-0.2,0.2-0.3,0.4-0.3,0.7v25c0,0.5,0.4,1,1,1h22.4c0.5,0,1-0.4,1-1V73c0-0.5-0.4-1-1-1H-186c-0.5,0-1-0.4-1-1v-1.2
					c0-0.5,0.4-1,1-1h18.4c0.5,0,1,0.4,1,1v22.5c0,0.5-0.4,1-1,1h-28.6c-0.5,0-1-0.4-1-1V62.9c0-0.3,0.1-0.5,0.3-0.7l6.7-6.6
					l19.5-19.2l24.9-24.5c0.4-0.3,0.9-0.4,1.3-0.1l25.9,20.8C-117.8,33.2-118.2,34.3-119.1,34.4z"/>
				<path class="st1" d="M-101.3,34.6l-21.4-16.1c-0.4-0.3-0.8-0.3-1.2,0l-5.2,4c-0.4,0.3-0.9,0.3-1.2,0l-0.4-0.3
					c-0.5-0.4-0.5-1.1,0-1.5l6.6-5.2c0.3-0.3,0.8-0.3,1.2,0l23.2,17.5c0.8,0.6,0.4,1.8-0.6,1.8h-0.5
					C-100.9,34.8-101.1,34.8-101.3,34.6z"/>
				<path class="st1" d="M-96.9,36.8v54.6c0,0.5-0.4,1-1,1h-1.2c-0.5,0-1-0.4-1-1V67.9c0-0.5-0.4-1-1-1h-7.6c-0.5,0-1-0.4-1-1v-1.2
					c0-0.5,0.4-1,1-1h7.6c0.5,0,1-0.4,1-1V40c0-0.5-0.4-1-1-1h-13.7c-0.5,0-1,0.4-1,1v52.3c0,0.5-0.4,1-1,1h-1.2c-0.5,0-1-0.4-1-1
					V36.8c0-0.5,0.4-1,1-1h20C-97.4,35.9-96.9,36.3-96.9,36.8z"/>
				<path class="st1" d="M-173.4,29.5v6.1c0,0.9,1,1.3,1.7,0.7l6.1-5.8c0.2-0.2,0.3-0.4,0.3-0.7v-0.3c0-0.5-0.4-1-1-1h-6.1
					C-172.9,28.6-173.4,29-173.4,29.5z"/>
				<path class="st1" d="M-165.1,28h-8.4c-0.4,0-0.7-0.3-0.7-0.7v-0.5c0-0.4,0.3-0.7,0.7-0.7h8.4c0.4,0,0.7,0.3,0.7,0.7v0.5
					C-164.4,27.7-164.7,28-165.1,28z"/>
			</g>
		</g>
	</g>
</g>
<g>
	<g>
		<path class="st2" d="M10.7,66.7c2.1,0,4.1,0.5,5.7,1.5s2.9,2.4,3.7,4.2c0.9,1.7,1.3,3.7,1.3,5.9c0,2.2-0.4,4.3-1.4,6
			c-1,1.8-2.2,3.1-3.9,4.2c-1.6,1-3.5,1.5-5.6,1.5c-2.1,0-4-0.5-5.6-1.5c-1.6-1-2.9-2.4-3.7-4.1C0.4,82.7,0,80.6,0,78.5
			c0-2.2,0.4-4.2,1.4-6c0.9-1.8,2.1-3.2,3.9-4.2C6.7,67.4,8.6,66.8,10.7,66.7z M3.7,78.5c0,1.6,0.3,3.1,0.9,4.4s1.4,2.2,2.4,3
			C8,86.6,9.2,87,10.6,87c1.3,0,2.5-0.3,3.5-1.1c1.1-0.7,1.9-1.7,2.5-3c0.6-1.3,1-2.8,1-4.6c0-1.6-0.3-3.1-0.9-4.3
			c-0.5-1.3-1.4-2.2-2.4-3c-1.1-0.7-2.2-1.1-3.6-1.1c-1.3,0-2.5,0.3-3.5,1.1c-1.1,0.7-1.9,1.7-2.6,3C4.1,75.3,3.7,76.8,3.7,78.5z"/>
	</g>
	<g>
		<path class="st2" d="M35,82.6l-5.8-7.8v14.7h-3.6V67.2h2.2l7.7,10.6l7.2-10.6h2.2v22.3h-3.7V75.2l-4.8,7.1L35,82.6z"/>
	</g>
	<g>
		<path class="st3" d="M66.2,80.4l0.3-2.8h7.8v10.8c-0.9,0.4-1.8,0.9-3,1.2c-1.2,0.3-2.4,0.4-3.6,0.4c-2.2,0-4.2-0.5-5.9-1.5
			c-1.7-1-3-2.4-3.9-4.2c-0.9-1.7-1.4-3.6-1.4-5.8c0-2.2,0.5-4.3,1.5-6.1c1-1.8,2.4-3.2,4.2-4.2c1.7-1,3.7-1.5,5.9-1.5
			c0.9,0,1.8,0.1,3,0.3c1.2,0.2,2.1,0.5,3,1L73,70.8c-1.2-0.3-2-0.6-2.6-0.7c-0.5-0.1-1.3-0.2-2.1-0.2c-1.4,0-2.7,0.3-3.9,1
			c-1.2,0.6-2.1,1.6-2.8,2.9c-0.7,1.3-1.1,2.9-1.1,4.7c0,1.7,0.3,3.1,1,4.4s1.5,2.2,2.6,2.9c1.1,0.6,2.4,1.1,3.7,1.1
			c1.2,0,2.4-0.1,3.4-0.4v-6L66.2,80.4L66.2,80.4z"/>
	</g>
	<g>
		<path class="st3" d="M91.8,89.5v-9.7h-9.3v9.7h-3.7V67.3l3.6-0.2v9.8h9.3v-9.6h3.6v22.3H91.8z"/>
	</g>
	<g>
		<path class="st3" d="M110.4,67.3l8.6,22l-3.6,0.5l-2.2-5.9h-8.7l-2.1,5.6h-3.6l8.6-22.3H110.4z M108.7,72.3l-3.2,8.7h6.6
			L108.7,72.3z"/>
	</g>
	<g>
		<path class="st3" d="M122.2,67.3h6.6c2.6,0,4.6,0.5,6.2,1.7c1.6,1.2,2.4,2.8,2.4,5c0,1.4-0.3,2.6-1.1,3.5c-0.7,1-1.6,1.8-2.8,2.2
			l5.6,9.7h-4l-4.8-8.8c-0.4,0.1-1.1,0.1-1.8,0.1h-2.7v8.7h-3.6V67.3z M128.7,70.4h-2.9v7.5h2.9c1.5,0,2.7-0.3,3.5-0.9
			c0.9-0.6,1.4-1.5,1.4-2.8c0-1.4-0.4-2.4-1.3-2.9C131.5,70.7,130.3,70.4,128.7,70.4z"/>
	</g>
	<g>
		<path class="st4" d="M158.3,89.5h-8.3V67.3h7.8c2.4,0,4.2,0.5,5.5,1.5s2,2.6,2,4.7c0,1.5-0.9,2.9-2.6,4.2c1.2,0.5,2,1.3,2.8,2.1
			c0.6,1,1,2,1,3.4c0,2-0.7,3.6-2.1,4.8C162.6,89,160.6,89.5,158.3,89.5z M157.2,70.4h-3.6v6.2h3.1c1.4,0,2.6-0.3,3.4-0.7
			c0.9-0.5,1.3-1.3,1.3-2.4c0-1.2-0.3-1.9-1.1-2.4C159.6,70.6,158.5,70.4,157.2,70.4z M158.3,79.6h-4.8v7h4.5c1.4,0,2.5-0.3,3.2-0.9
			c0.7-0.5,1.2-1.4,1.2-2.5c0-1.2-0.3-2-1.1-2.7C160.6,79.9,159.6,79.6,158.3,79.6z"/>
	</g>
	<g>
		<path class="st4" d="M179.2,67.3l8.6,22l-3.6,0.5l-2.2-5.9h-8.8l-2.1,5.6h-3.6l8.6-22.3H179.2z M177.5,72.3l-3.2,8.7h6.6
			L177.5,72.3z"/>
	</g>
	<g>
		<path class="st4" d="M206.2,89.5h-17l-0.4-2.9l13.1-16.5h-11.8l-0.4-2.9h16.1l0.4,2.9l-13.4,16.5h13.1L206.2,89.5z"/>
	</g>
	<g>
		<path class="st4" d="M218.8,67.3l8.6,22l-3.6,0.5l-2.2-5.9h-8.8l-2.1,5.6H207l8.6-22.3H218.8z M217.1,72.3l-3.2,8.7h6.6
			L217.1,72.3z"/>
	</g>
	<g>
		<path class="st4" d="M230.6,67.3h6.6c2.6,0,4.6,0.5,6.2,1.7s2.4,2.8,2.4,5c0,1.4-0.3,2.6-1.1,3.5c-0.7,1-1.6,1.8-2.8,2.2l5.6,9.7
			h-4l-4.8-8.8c-0.4,0.1-1.1,0.1-1.8,0.1h-2.7v8.7h-3.6L230.6,67.3L230.6,67.3z M237.2,70.4h-2.9v7.5h2.9c1.5,0,2.7-0.3,3.5-0.9
			c0.9-0.6,1.4-1.5,1.4-2.8c0-1.4-0.4-2.4-1.3-2.9C240,70.7,238.7,70.4,237.2,70.4z"/>
	</g>
</g>
<g>
	<g>
		<rect x="0" y="48.8" width="247.6" height="0.5"/>
	</g>
</g>
<g>
	<g>
		<g>
			<g>
				<path class="st5" d="M-0.2,30.1l20.3-19.9c0.1-0.1,0.3-0.2,0.5-0.2s0.3,0.1,0.5,0.2l10.7,9c0.2,0.2,0.3,0.5,0.2,0.8
					s-0.4,0.5-0.7,0.5h-0.7c-0.2,0-0.4-0.1-0.5-0.2L21,12.5c0,0-0.1-0.1-0.2-0.1c-0.1,0-0.1,0-0.2,0.1L2.6,30h-2.8V30.1z"/>
			</g>
		</g>
		<g>
			<g>
				<path class="st5" d="M41.4,19.3c-0.2,0-0.3-0.1-0.5-0.2l-8.3-6.5c0,0-0.1-0.1-0.2-0.1c-0.1,0-0.1,0-0.2,0.1l-2.7,2.1
					c-0.1,0.1-0.3,0.2-0.5,0.2s-0.3-0.1-0.5-0.2v-0.1c-0.2-0.1-0.3-0.4-0.3-0.6s0.1-0.5,0.3-0.6l3.5-2.7c0.1-0.1,0.3-0.2,0.5-0.2
					s0.3,0.1,0.5,0.2l9.3,7.2c0.3,0.2,0.4,0.5,0.3,0.9c-0.1,0.3-0.4,0.5-0.7,0.5H41.4z"/>
			</g>
		</g>
		<g>
			<g>
				<path class="st5" d="M6,21.6c-0.4,0-0.5-0.1-0.5-0.5v-3.6c0-0.3,0.3-0.6,0.6-0.6H10c0.4,0,0.4,0.2,0.4,0.6v0.3
					c0,0.2-0.1,0.4-0.2,0.6l-3.3,3.1c-0.1,0.1-0.3,0.2-0.5,0.2L6,21.6L6,21.6z"/>
			</g>
		</g>
		<g>
			<g>
				<path class="st5" d="M5.9,16.2c-0.4,0-0.8-0.3-0.8-0.8s0.3-0.8,0.8-0.8h4.2c0.4,0,0.8,0.3,0.8,0.8s-0.4,0.8-0.8,0.8H5.9z"/>
			</g>
		</g>
	</g>
	<g>
		<path class="st6" d="M15.9,36.2V25h4c1.4,0,2.5,0.3,3.3,0.8c0.8,0.5,1.1,1.3,1.1,2.3c0,0.6-0.1,1.1-0.4,1.5
			c-0.3,0.4-0.7,0.7-1.2,0.9c0.6,0.2,1,0.4,1.3,0.9c0.3,0.4,0.5,0.9,0.5,1.5c0,1.1-0.3,1.9-1,2.5c-0.7,0.6-1.7,0.8-3.1,0.8H15.9z
			 M18.6,29.7H20c0.6,0,1-0.1,1.3-0.3c0.3-0.2,0.4-0.5,0.4-0.9c0-0.5-0.1-0.8-0.4-1s-0.7-0.3-1.3-0.3h-1.3V29.7z M18.6,31.5v2.7h1.8
			c0.5,0,0.9-0.1,1.1-0.3s0.4-0.5,0.4-0.9c0-0.9-0.5-1.4-1.4-1.4H18.6z"/>
		<path class="st6" d="M34.8,25v7.3c0,0.8-0.2,1.5-0.5,2.2c-0.4,0.6-0.9,1.1-1.5,1.4c-0.7,0.3-1.4,0.5-2.3,0.5
			c-1.4,0-2.4-0.4-3.2-1.1c-0.8-0.7-1.2-1.7-1.2-2.9V25h2.7v7.4c0,1.2,0.6,1.8,1.7,1.8c0.6,0,1-0.2,1.3-0.5c0.3-0.3,0.4-0.8,0.4-1.5
			V25H34.8z"/>
		<path class="st6" d="M40.6,29.9l2.1-4.9h2.9L42,32.2v4h-2.7v-4L35.6,25h2.9L40.6,29.9z"/>
		<path class="st6" d="M45.4,39.2l-1.3-0.6l0.3-0.5c0.4-0.7,0.5-1.3,0.6-1.9v-1.9H47l0,1.7c0,0.6-0.2,1.2-0.5,1.8
			C46.2,38.3,45.9,38.8,45.4,39.2z"/>
		<path class="st6" d="M58.5,33.2c0-0.4-0.1-0.7-0.4-0.9c-0.3-0.2-0.8-0.4-1.5-0.7c-0.7-0.2-1.3-0.5-1.7-0.7
			c-1.4-0.7-2.2-1.7-2.2-2.9c0-0.6,0.2-1.2,0.5-1.6c0.4-0.5,0.9-0.8,1.5-1.1s1.4-0.4,2.2-0.4c0.8,0,1.5,0.1,2.2,0.4
			c0.6,0.3,1.1,0.7,1.5,1.2c0.4,0.5,0.5,1.1,0.5,1.8h-2.7c0-0.5-0.1-0.8-0.4-1.1c-0.3-0.3-0.7-0.4-1.1-0.4c-0.5,0-0.9,0.1-1.1,0.3
			c-0.3,0.2-0.4,0.5-0.4,0.8c0,0.3,0.2,0.5,0.5,0.8c0.3,0.2,0.8,0.5,1.6,0.7c0.8,0.2,1.4,0.5,1.9,0.8c1.2,0.7,1.8,1.7,1.8,2.9
			c0,1-0.4,1.7-1.1,2.3c-0.7,0.6-1.7,0.8-3,0.8c-0.9,0-1.7-0.2-2.5-0.5s-1.3-0.8-1.7-1.3c-0.4-0.6-0.6-1.2-0.6-2h2.7
			c0,0.6,0.2,1,0.5,1.3c0.3,0.3,0.8,0.4,1.5,0.4c0.4,0,0.8-0.1,1.1-0.3C58.4,33.9,58.5,33.6,58.5,33.2z"/>
		<path class="st6" d="M69.6,31.5h-4.2v2.7h5v2.1h-7.7V25h7.7v2.1h-5v2.4h4.2V31.5z"/>
		<path class="st6" d="M74.1,34.1h4.7v2.1h-7.4V25h2.7V34.1z"/>
		<path class="st6" d="M82.6,34.1h4.7v2.1H80V25h2.7V34.1z"/>
		<path class="st6" d="M93.9,30.3c-0.3-0.4-0.5-0.8-0.7-1.2c-0.2-0.4-0.3-0.8-0.3-1.2c0-0.9,0.3-1.6,0.9-2.2s1.3-0.8,2.3-0.8
			c0.8,0,1.5,0.3,2.1,0.8c0.6,0.5,0.8,1.2,0.8,1.9c0,1-0.5,1.8-1.6,2.5l-0.6,0.4l1.7,2c0.3-0.6,0.4-1.2,0.4-1.9h2.2
			c0,1.5-0.3,2.7-1,3.6l1.7,2H99l-0.5-0.6c-0.4,0.3-0.9,0.4-1.3,0.6s-1,0.2-1.5,0.2c-1.1,0-2-0.3-2.7-0.9c-0.7-0.6-1-1.3-1-2.3
			c0-0.5,0.1-1,0.4-1.4C92.6,31.4,93.2,30.9,93.9,30.3L93.9,30.3z M95.8,34.4c0.5,0,0.9-0.1,1.3-0.3l-2-2.3l-0.1,0
			c-0.3,0.4-0.4,0.8-0.4,1.2c0,0.4,0.1,0.7,0.4,1C95.2,34.2,95.5,34.4,95.8,34.4z M95.2,27.8c0,0.4,0.2,0.8,0.6,1.3l0.5-0.3
			c0.2-0.2,0.4-0.3,0.5-0.5c0.1-0.2,0.2-0.4,0.2-0.6c0-0.2-0.1-0.4-0.2-0.6c-0.2-0.2-0.4-0.3-0.6-0.3c-0.3,0-0.5,0.1-0.7,0.3
			C95.3,27.3,95.2,27.6,95.2,27.8z"/>
		<path class="st6" d="M111.1,32.3h-1.5v4h-2.7V25h4.4c1.3,0,2.4,0.3,3.1,0.9c0.7,0.6,1.1,1.4,1.1,2.5c0,0.8-0.2,1.4-0.5,1.9
			c-0.3,0.5-0.8,0.9-1.5,1.2l2.3,4.5v0.1H113L111.1,32.3z M109.6,30.2h1.7c0.5,0,0.9-0.1,1.2-0.4c0.3-0.3,0.4-0.6,0.4-1.1
			c0-0.5-0.1-0.9-0.4-1.1c-0.3-0.3-0.6-0.4-1.2-0.4h-1.7V30.2z"/>
		<path class="st6" d="M124.1,31.5h-4.2v2.7h5v2.1h-7.7V25h7.7v2.1h-5v2.4h4.2V31.5z"/>
		<path class="st6" d="M135.3,36.2h-2.7l-4-7v7H126V25h2.7l4,7v-7h2.7V36.2z"/>
		<path class="st6" d="M145.6,27.1h-3.4v9.1h-2.7v-9.1h-3.3V25h9.3V27.1z"/>
		<path class="st6" d="M154.3,32.3h-1.5v4h-2.7V25h4.4c1.3,0,2.4,0.3,3.1,0.9c0.7,0.6,1.1,1.4,1.1,2.5c0,0.8-0.2,1.4-0.5,1.9
			c-0.3,0.5-0.8,0.9-1.5,1.2l2.3,4.5v0.1h-2.9L154.3,32.3z M152.9,30.2h1.7c0.5,0,0.9-0.1,1.2-0.4c0.3-0.3,0.4-0.6,0.4-1.1
			c0-0.5-0.1-0.9-0.4-1.1c-0.3-0.3-0.6-0.4-1.2-0.4h-1.7V30.2z"/>
		<path class="st6" d="M167.4,31.5h-4.2v2.7h5v2.1h-7.7V25h7.7v2.1h-5v2.4h4.2V31.5z"/>
		<path class="st6" d="M175.6,34.1h-3.7l-0.6,2.1h-2.9l4.1-11.2h2.5l4.1,11.2h-2.9L175.6,34.1z M172.6,32h2.4l-1.2-3.9L172.6,32z"/>
		<path class="st6" d="M182.7,34.1h4.7v2.1H180V25h2.7V34.1z"/>
		<path class="st6" d="M199.3,31.5h-4.2v2.7h5v2.1h-7.7V25h7.7v2.1h-5v2.4h4.2V31.5z"/>
		<path class="st6" d="M207,33.2c0-0.4-0.1-0.7-0.4-0.9c-0.3-0.2-0.8-0.4-1.5-0.7c-0.7-0.2-1.3-0.5-1.7-0.7
			c-1.4-0.7-2.2-1.7-2.2-2.9c0-0.6,0.2-1.2,0.5-1.6s0.9-0.8,1.5-1.1c0.7-0.3,1.4-0.4,2.2-0.4c0.8,0,1.5,0.1,2.2,0.4
			c0.6,0.3,1.1,0.7,1.5,1.2c0.4,0.5,0.5,1.1,0.5,1.8H207c0-0.5-0.1-0.8-0.4-1.1c-0.3-0.3-0.7-0.4-1.1-0.4c-0.5,0-0.9,0.1-1.1,0.3
			c-0.3,0.2-0.4,0.5-0.4,0.8c0,0.3,0.2,0.5,0.5,0.8c0.3,0.2,0.8,0.5,1.6,0.7s1.4,0.5,1.9,0.8c1.2,0.7,1.8,1.7,1.8,2.9
			c0,1-0.4,1.7-1.1,2.3c-0.7,0.6-1.7,0.8-3,0.8c-0.9,0-1.7-0.2-2.5-0.5c-0.7-0.3-1.3-0.8-1.7-1.3c-0.4-0.6-0.6-1.2-0.6-2h2.7
			c0,0.6,0.2,1,0.5,1.3c0.3,0.3,0.8,0.4,1.5,0.4c0.4,0,0.8-0.1,1.1-0.3C206.9,33.9,207,33.6,207,33.2z"/>
		<path class="st6" d="M219.8,27.1h-3.4v9.1h-2.7v-9.1h-3.3V25h9.3V27.1z"/>
		<path class="st6" d="M226.4,34.1h-3.7l-0.6,2.1h-2.9l4.1-11.2h2.5l4.1,11.2h-2.9L226.4,34.1z M223.4,32h2.4l-1.2-3.9L223.4,32z"/>
		<path class="st6" d="M238.6,27.1h-3.4v9.1h-2.7v-9.1h-3.3V25h9.3V27.1z"/>
		<path class="st6" d="M246.7,31.5h-4.2v2.7h5v2.1h-7.7V25h7.7v2.1h-5v2.4h4.2V31.5z"/>
	</g>
</g>
<g>
	<g>
		<g>
			<path class="st5" d="M-0.2-73.9l20.3-19.9c0.1-0.1,0.3-0.2,0.5-0.2s0.3,0.1,0.5,0.2l10.7,9c0.2,0.2,0.3,0.5,0.2,0.8
				c-0.1,0.3-0.4,0.5-0.7,0.5h-0.7c-0.2,0-0.4-0.1-0.5-0.2L21-91.5c0,0-0.1-0.1-0.2-0.1c-0.1,0-0.1,0-0.2,0.1L2.6-74L-0.2-73.9
				L-0.2-73.9z"/>
		</g>
		<g>
			<path class="st5" d="M41.4-84.7c-0.2,0-0.3-0.1-0.5-0.2l-8.3-6.5c0,0-0.1-0.1-0.2-0.1c-0.1,0-0.1,0-0.2,0.1l-2.7,2.1
				c-0.1,0.1-0.3,0.2-0.5,0.2s-0.3-0.1-0.5-0.2v-0.1c-0.2-0.1-0.3-0.4-0.3-0.6c0-0.2,0.1-0.5,0.3-0.6l3.5-2.7
				c0.1-0.1,0.3-0.2,0.5-0.2s0.3,0.1,0.5,0.2l9.3,7.2c0.3,0.2,0.4,0.5,0.3,0.9c-0.1,0.3-0.4,0.5-0.7,0.5H41.4z"/>
		</g>
		<g>
			<path class="st5" d="M6-82.4c-0.4,0-0.5-0.1-0.5-0.5v-3.6c0-0.3,0.3-0.6,0.6-0.6H10c0.4,0,0.4,0.2,0.4,0.6v0.3
				c0,0.2-0.1,0.4-0.2,0.6l-3.3,3.1c-0.1,0.1-0.3,0.2-0.5,0.2L6-82.4L6-82.4z"/>
		</g>
		<g>
			<path class="st5" d="M5.9-87.8c-0.4,0-0.8-0.3-0.8-0.8s0.3-0.8,0.8-0.8h4.2c0.4,0,0.8,0.3,0.8,0.8s-0.4,0.8-0.8,0.8H5.9z"/>
		</g>
	</g>
	<text transform="matrix(1 0 0 1 15.0611 -67.7919)" class="st6" style="font-family:'Roboto-Black'; font-size:15.7328px;">BUY, SELL &amp; RENT REAL ESTATE</text>
</g>
<rect x="-24.1" y="141.9" width="295.7" height="42.5"/>
</svg>
