<?xml version="1.0" encoding="iso-8859-1"?>
<!-- Generator: Adobe Illustrator 22.1.0, SVG Export Plug-In . SVG Version: 6.00 Build 0)  -->
<svg xmlns="http://www.w3.org/2000/svg" xmlns:xlink="http://www.w3.org/1999/xlink" version="1.1" id="Layer_3" x="0px" y="0px" viewBox="0 0 64 64" style="enable-background:new 0 0 64 64;" xml:space="preserve" width="512" height="512">
<g>
	<path d="M54,53h-1V42c0-1.654-1.346-3-3-3h-2.094c-0.843-1.451-2.105-2.596-3.6-3.278C45.337,34.806,46,33.485,46,32   c0-2.757-2.243-5-5-5s-5,2.243-5,5c0,1.485,0.663,2.806,1.694,3.722c-1.496,0.682-2.757,1.827-3.6,3.278h-4.188   c-0.843-1.451-2.105-2.596-3.6-3.278C27.337,34.806,28,33.485,28,32c0-2.757-2.243-5-5-5s-5,2.243-5,5   c0,1.485,0.663,2.806,1.694,3.722c-1.496,0.682-2.757,1.827-3.6,3.278H14c-1.654,0-3,1.346-3,3v11h-1c-0.553,0-1,0.447-1,1v4   c0,0.553,0.447,1,1,1h1v3c0,0.553,0.447,1,1,1h4c0.553,0,1-0.447,1-1v-3h30v3c0,0.553,0.447,1,1,1h4c0.553,0,1-0.447,1-1v-3h1   c0.553,0,1-0.447,1-1v-4C55,53.447,54.553,53,54,53z M38,32c0-1.654,1.346-3,3-3s3,1.346,3,3s-1.346,3-3,3S38,33.654,38,32z M41,37   c1.722,0,3.344,0.752,4.468,2h-8.936C37.656,37.752,39.278,37,41,37z M20,32c0-1.654,1.346-3,3-3s3,1.346,3,3s-1.346,3-3,3   S20,33.654,20,32z M23,37c1.722,0,3.344,0.752,4.468,2h-8.936C19.656,37.752,21.278,37,23,37z M14,41h36c0.552,0,1,0.448,1,1v1H13   v-1C13,41.448,13.448,41,14,41z M13,45h38v8H13V45z M15,61h-2v-2h2V61z M51,61h-2v-2h2V61z M53,57h-1h-4H16h-4h-1v-2h1h40h1V57z"/>
	<path d="M61,1H3C1.897,1,1,1.897,1,3v28c0,1.103,0.897,2,2,2h13v-2H3v-6h58v6H48v2h13c1.103,0,2-0.897,2-2V3   C63,1.897,62.103,1,61,1z M3,23V3h58v20H3z"/>
	<rect x="57" y="27" width="2" height="2"/>
	<rect x="53" y="27" width="2" height="2"/>
	<rect x="5" y="27" width="4" height="2"/>
	<path d="M56.707,11.293l-4-4C52.52,7.105,52.266,7,52,7H34.414l-1.707-1.707c-0.391-0.391-1.023-0.391-1.414,0L29.586,7H12   c-0.266,0-0.52,0.105-0.707,0.293l-4,4c-0.286,0.286-0.372,0.716-0.217,1.09C7.23,12.757,7.596,13,8,13h1v7c0,0.553,0.447,1,1,1h16   h12h16c0.553,0,1-0.447,1-1v-7h1c0.404,0,0.77-0.243,0.924-0.617C57.079,12.009,56.993,11.579,56.707,11.293z M51.586,9l2,2H38.414   l-2-2H51.586z M32,7.414L35.586,11h-7.172L32,7.414z M12.414,9h15.172l-2,2H10.414L12.414,9z M11,13h14v6h-4v-3   c0-0.553-0.447-1-1-1h-4c-0.553,0-1,0.447-1,1v3h-4V13z M19,19h-2v-2h2V19z M33,19h-2v-2h2V19z M35,19v-3c0-0.553-0.447-1-1-1h-4   c-0.553,0-1,0.447-1,1v3h-2v-6h10v6H35z M47,19h-2v-2h2V19z M53,19h-4v-3c0-0.553-0.447-1-1-1h-4c-0.553,0-1,0.447-1,1v3h-4v-6h14   V19z"/>
</g>
</svg>
