<svg id="Layer_3" enable-background="new 0 0 64 64" height="512" viewBox="0 0 64 64" width="512" xmlns="http://www.w3.org/2000/svg"><path d="m62 13c.553 0 1-.448 1-1v-4c0-.552-.447-1-1-1h-1.586l-5.707-5.707c-.187-.188-.441-.293-.707-.293h-44c-.266 0-.52.105-.707.293l-5.707 5.707h-1.586c-.553 0-1 .448-1 1v4c0 .552.447 1 1 1h1v44h-1c-.553 0-1 .447-1 1v4c0 .553.447 1 1 1h60c.553 0 1-.447 1-1v-4c0-.553-.447-1-1-1h-1v-44zm-51.586-10h43.172l4 4h-51.172zm-7.414 6h58v2h-58zm52 38.19c-.524.152-1.017.412-1.414.81l-.586.586c-.535.533-1.465.533-2 0l-.586-.586c-.397-.397-.89-.657-1.414-.81v-34.19h6zm-12-34.19h4v34.19c-.524.152-1.017.412-1.414.81l-.586.586c-.268.267-.622.414-1 .414h-1zm-36.414 0 4.5 4.5-1.586 1.586-4.5-4.5v-1.586zm2.414 9.414 5.414-5.414h3.172l-8.586 8.586zm-4-5 3.086 3.086-.793.793c-.188.187-.293.442-.293.707v6c0 .404.243.769.617.924.124.051.254.076.383.076.26 0 .516-.102.707-.293l12-12c.286-.286.372-.716.217-1.09-.154-.373-.52-.617-.924-.617h-6c-.266 0-.52.105-.707.293l-.793.793-3.086-3.086h27.586v44h-6.184c.112-.314.184-.648.184-1v-11.184c1.161-.414 2-1.514 2-2.816v-8c0-2.757-2.243-5-5-5h-.026c.635-.838 1.026-1.87 1.026-3 0-2.757-2.243-5-5-5s-5 2.243-5 5c0 1.13.391 2.162 1.026 3h-.026c-2.757 0-5 2.243-5 5v8c0 1.302.839 2.402 2 2.816v11.184c0 .352.072.686.184 1h-12.184zm20.184 39.586h-2.369c.113-.314.185-.648.185-1v-6c0-.552.448-1 1-1s1 .448 1 1v6c0 .352.072.686.184 1zm1.816-1v-6c0-1.654-1.346-3-3-3s-3 1.346-3 3v6c0 .552-.448 1-1 1s-1-.448-1-1v-11.184c1.161-.414 2-1.514 2-2.816v-7h-2v7c0 .552-.448 1-1 1s-1-.448-1-1v-8c0-1.654 1.346-3 3-3h8c1.654 0 3 1.346 3 3v8c0 .552-.448 1-1 1s-1-.448-1-1v-7h-2v7c0 1.302.839 2.402 2 2.816v11.184c0 .552-.448 1-1 1s-1-.448-1-1zm-6-30c0-1.654 1.346-3 3-3s3 1.346 3 3-1.346 3-3 3-3-1.346-3-3zm40 35h-58v-2h58zm-22-4v-44h2v37c0 .553.447 1 1 1h2c.912 0 1.77-.355 2.414-1l.586-.586c.535-.533 1.465-.533 2 0l.586.586c1.289 1.289 3.539 1.289 4.828 0l.586-.586c.535-.533 1.465-.533 2 0l1.293 1.293c.187.188.441.293.707.293v6zm20-8.414-.586-.586c-.397-.397-.89-.657-1.414-.81v-34.19h2z"/><path d="m30 21c1.654 0 3-1.346 3-3s-1.346-3-3-3-3 1.346-3 3 1.346 3 3 3zm0-4c.552 0 1 .449 1 1s-.448 1-1 1-1-.449-1-1 .448-1 1-1z"/><path d="m10 36c-1.654 0-3 1.346-3 3s1.346 3 3 3 3-1.346 3-3-1.346-3-3-3zm0 4c-.552 0-1-.448-1-1s.448-1 1-1 1 .448 1 1-.448 1-1 1z"/></svg>