<svg id="Layer_3" enable-background="new 0 0 64 64" height="512" viewBox="0 0 64 64" width="512" xmlns="http://www.w3.org/2000/svg"><path d="m1 61h62v2h-62z"/><path d="m1 55h2v2h-2z"/><path d="m37.8 55h3.867v2h-3.867z"/><path d="m30.067 55h3.867v2h-3.867z"/><path d="m53.267 55h3.867v2h-3.867z"/><path d="m45.533 55h3.867v2h-3.867z"/><path d="m6.867 55h3.867v2h-3.867z"/><path d="m14.6 55h3.867v2h-3.867z"/><path d="m22.333 55h3.867v2h-3.867z"/><path d="m61 55h2v2h-2z"/><path d="m8 11h4c.552 0 1-.448 1-1v-4c0-.552-.448-1-1-1h-4c-.552 0-1 .448-1 1v4c0 .552.448 1 1 1zm1-4h2v2h-2z"/><path d="m20 11h4c.552 0 1-.448 1-1v-4c0-.552-.448-1-1-1h-4c-.552 0-1 .448-1 1v4c0 .552.448 1 1 1zm1-4h2v2h-2z"/><path d="m8 19h4c.552 0 1-.448 1-1v-4c0-.552-.448-1-1-1h-4c-.552 0-1 .448-1 1v4c0 .552.448 1 1 1zm1-4h2v2h-2z"/><path d="m20 19h4c.552 0 1-.448 1-1v-4c0-.552-.448-1-1-1h-4c-.552 0-1 .448-1 1v4c0 .552.448 1 1 1zm1-4h2v2h-2z"/><path d="m8 27h4c.552 0 1-.448 1-1v-4c0-.552-.448-1-1-1h-4c-.552 0-1 .448-1 1v4c0 .552.448 1 1 1zm1-4h2v2h-2z"/><path d="m20 27h4c.552 0 1-.448 1-1v-4c0-.552-.448-1-1-1h-4c-.552 0-1 .448-1 1v4c0 .552.448 1 1 1zm1-4h2v2h-2z"/><path d="m8 35h4c.552 0 1-.448 1-1v-4c0-.552-.448-1-1-1h-4c-.552 0-1 .448-1 1v4c0 .552.448 1 1 1zm1-4h2v2h-2z"/><path d="m20 35h4c.552 0 1-.448 1-1v-4c0-.552-.448-1-1-1h-4c-.552 0-1 .448-1 1v4c0 .552.448 1 1 1zm1-4h2v2h-2z"/><path d="m48 31c8.271 0 15-6.729 15-15s-6.729-15-15-15-15 6.729-15 15 6.729 15 15 15zm0-28c7.168 0 13 5.832 13 13s-5.832 13-13 13-13-5.832-13-13 5.832-13 13-13z"/><path d="m56 23c1.103 0 2-.897 2-2v-10c0-1.103-.897-2-2-2h-3v-2c0-1.103-.897-2-2-2h-6c-1.103 0-2 .897-2 2v2h-3c-1.103 0-2 .897-2 2v10c0 1.103.897 2 2 2zm-16-2v-6.754l2 .444v2.31h2v-1.865l3.783.841c.071.016.144.024.217.024s.146-.008.217-.024l3.783-.841v1.865h2v-2.309l2-.445.001 6.754zm5-14h6v2h-6zm11 4v1.198l-8 1.778-8-1.778v-1.198z"/><path d="m43 34c0-.552-.448-1-1-1h-13v-30h2v-2h-30v2h2v46h-2v2h62v-2h-20zm-2 1v14h-12v-14zm-36-32h22v46h-4v-10h2v-2h-18v2h2v10h-4zm12 40v6h-2v-6h-2v6h-2v-10h10v10h-2v-6z"/><path d="m31 37h2v2h-2z"/><path d="m37 37h2v2h-2z"/><path d="m31 41h2v2h-2z"/><path d="m37 41h2v2h-2z"/><path d="m31 45h2v2h-2z"/><path d="m37 45h2v2h-2z"/></svg>