<svg width="266px" version="1.0" id="Layer_1" xmlns="http://www.w3.org/2000/svg" xmlns:xlink="http://www.w3.org/1999/xlink" x="0px" y="0px" viewBox="0 0 266.2 55.2" style="enable-background:new 0 0 266.2 55.2;" xml:space="preserve">
								<style type="text/css">
									.st0{enable-background:new    ;}
									.st1{fill:#BE202E;}
									.st2{fill:#FFFFFF;}
								</style>
								<g class="st0">
									<path class="st1" d="M77.7,45.4l0-0.8c0-0.5-0.1-0.9-0.4-1.1s-0.7-0.3-1.2-0.3c-0.3,0-0.5,0-0.7,0.1c-0.2,0.1-0.4,0.1-0.5,0.3
									s-0.2,0.2-0.3,0.4c0,0.1-0.1,0.3-0.2,0.6c-0.1,0.4-0.3,0.6-0.7,0.6c-0.2,0-0.3-0.1-0.5-0.2s-0.2-0.3-0.2-0.5c0-0.3,0.1-0.6,0.3-0.9
									c0.2-0.3,0.6-0.5,1.1-0.7s1-0.3,1.7-0.3c0.6,0,1.1,0.1,1.5,0.3s0.7,0.5,0.9,0.8c0.1,0.2,0.2,0.7,0.2,1.3v2.7c0,0.4,0,0.6,0,0.8
									c0.1,0.2,0.1,0.4,0.3,0.5s0.3,0.2,0.5,0.2c0.2,0,0.5,0,0.8-0.1v0.6c-0.4,0.1-0.7,0.2-1,0.2c-0.3,0-0.6,0-0.8-0.1
									c-0.2-0.1-0.4-0.2-0.6-0.4c-0.1-0.2-0.2-0.4-0.3-0.6c-0.6,0.4-1.1,0.8-1.5,0.9c-0.5,0.2-0.9,0.3-1.4,0.3c-0.6,0-1.2-0.2-1.6-0.5
									c-0.4-0.4-0.6-0.8-0.6-1.2c0-0.3,0.1-0.6,0.2-0.8s0.4-0.5,0.7-0.7c0.3-0.2,0.8-0.4,1.4-0.5C75.6,45.7,76.5,45.5,77.7,45.4z
									M77.7,46c-1.1,0.2-1.8,0.3-2,0.3c-0.5,0.1-0.9,0.2-1.1,0.4s-0.4,0.3-0.5,0.5c-0.1,0.2-0.1,0.3-0.1,0.5s0.1,0.4,0.2,0.5
									s0.3,0.3,0.4,0.4s0.4,0.1,0.6,0.1c0.3,0,0.6-0.1,1-0.2c0.4-0.1,0.9-0.4,1.5-0.9L77.7,46z"></path>
									<path class="st1" d="M85.3,40.4v-0.6c0.3,0,0.6-0.1,0.9-0.2s0.6-0.2,1-0.4h0.5v8.5c0,0.4,0,0.6,0,0.7c0,0.2,0.1,0.3,0.2,0.4
									s0.3,0.1,0.7,0.1H89v0.6l-2.4,0.1v-1.1c-0.5,0.4-0.9,0.7-1.3,0.9c-0.4,0.2-0.8,0.3-1.2,0.3c-0.8,0-1.6-0.3-2.1-1
									C81.3,48,81,47.1,81,46.2c0-0.7,0.1-1.3,0.4-1.9c0.3-0.6,0.7-1,1.2-1.3c0.5-0.3,1-0.4,1.6-0.4c0.4,0,0.9,0.1,1.2,0.2
									c0.4,0.2,0.7,0.4,1,0.7v-3.1H85.3z M86.5,47.8v-2.7c0-0.4-0.1-0.7-0.2-0.9c-0.1-0.2-0.4-0.5-0.7-0.6c-0.3-0.2-0.7-0.3-1-0.3
									c-0.4,0-0.8,0.1-1.1,0.3c-0.3,0.2-0.6,0.5-0.8,1c-0.2,0.4-0.3,0.9-0.3,1.5c0,0.6,0.1,1,0.3,1.5c0.2,0.4,0.4,0.7,0.7,0.9
									c0.3,0.2,0.6,0.3,0.9,0.3c0.3,0,0.7-0.1,1.1-0.3S86.2,48.1,86.5,47.8z"></path>
									<path class="st1" d="M89.4,42.7h3.2v0.6h-0.2c-0.3,0-0.4,0-0.5,0c-0.1,0-0.2,0.1-0.2,0.1c0,0.1-0.1,0.1-0.1,0.2
									c0,0.1,0.1,0.3,0.2,0.6l1.6,4l1.6-4c0.1-0.3,0.1-0.4,0.1-0.6c0-0.1,0-0.2-0.1-0.3c-0.1-0.1-0.3-0.1-0.5-0.1h-0.3v-0.6h2.8v0.6
									c-0.2,0-0.4,0-0.5,0.1c-0.1,0.1-0.2,0.1-0.3,0.2s-0.2,0.3-0.3,0.6l-2.2,5.2h-0.8l-2.3-5.4c-0.1-0.2-0.2-0.4-0.3-0.5
									c-0.1-0.1-0.2-0.2-0.3-0.2s-0.3-0.1-0.4-0.1V42.7z"></path>
									<path class="st1" d="M103.4,47.7l0.4,0.4c-0.3,0.4-0.7,0.7-1,1c-0.3,0.2-0.6,0.4-0.9,0.5s-0.6,0.1-1,0.1c-0.7,0-1.3-0.1-1.8-0.4
									c-0.6-0.3-1-0.7-1.3-1.3c-0.3-0.5-0.4-1.1-0.4-1.8c0-0.7,0.1-1.4,0.4-1.9s0.7-0.9,1.2-1.2c0.5-0.3,1.1-0.5,1.8-0.5
									c0.5,0,0.9,0.1,1.3,0.2c0.4,0.2,0.7,0.4,0.9,0.7c0.3,0.3,0.4,0.7,0.6,1.1c0.1,0.2,0.1,0.5,0.1,0.9h-5c0,0.2,0,0.4,0,0.5
									c0,0.6,0.1,1.1,0.3,1.6c0.2,0.5,0.5,0.8,0.8,1c0.3,0.2,0.7,0.3,1.2,0.3c0.4,0,0.7-0.1,1.1-0.3S102.9,48.2,103.4,47.7z M102.5,44.8
									c-0.1-0.4-0.2-0.8-0.3-1c-0.1-0.2-0.3-0.4-0.5-0.5c-0.2-0.1-0.5-0.2-0.8-0.2c-0.3,0-0.6,0.1-0.8,0.2c-0.3,0.1-0.5,0.3-0.6,0.5
									c-0.2,0.2-0.3,0.5-0.4,0.9H102.5z"></path>
									<path class="st1" d="M104.9,43.7v-0.6c0.4,0,0.7-0.1,0.9-0.2s0.5-0.2,0.9-0.4h0.5v1.3c0.6-0.5,1.1-0.9,1.6-1.1
									c0.4-0.2,0.9-0.3,1.3-0.3c0.4,0,0.7,0.1,1,0.2c0.3,0.1,0.5,0.3,0.7,0.5c0.2,0.2,0.3,0.5,0.4,0.8c0,0.2,0.1,0.4,0.1,0.8v3.1
									c0,0.4,0,0.6,0.1,0.7s0.1,0.2,0.3,0.2c0.1,0,0.4,0.1,0.9,0.1v0.6h-3.6v-0.6h0.2c0.3,0,0.6,0,0.7-0.1c0.1-0.1,0.2-0.1,0.3-0.3
									c0.1-0.1,0.1-0.4,0.1-0.7v-2.6c0-0.5,0-0.9-0.1-1.1c-0.1-0.2-0.2-0.4-0.4-0.5s-0.5-0.2-0.8-0.2c-0.4,0-0.8,0.1-1.2,0.3
									c-0.4,0.2-0.8,0.5-1.3,0.9v3.2c0,0.4,0,0.6,0.1,0.7c0.1,0.1,0.1,0.2,0.3,0.3c0.1,0,0.3,0.1,0.7,0.1h0.2v0.6h-3.6v-0.6h0.2
									c0.3,0,0.6,0,0.7-0.1c0.1-0.1,0.2-0.2,0.3-0.3c0-0.1,0-0.3,0-0.8v-4H104.9z"></path>
									<path class="st1" d="M116.2,40.3h0.5v2.4h2.1v0.7h-2.1v4.2c0,0.4,0,0.6,0.1,0.8c0.1,0.2,0.2,0.3,0.3,0.4s0.3,0.1,0.5,0.1
									c0.4,0,0.9-0.2,1.5-0.6V49c-0.6,0.4-1.2,0.6-1.9,0.6c-0.4,0-0.7-0.1-1-0.2c-0.3-0.2-0.5-0.3-0.6-0.6c-0.1-0.2-0.2-0.6-0.2-1.1v-4.3
									h-1.2v-0.6c0.4-0.1,0.7-0.2,1-0.4s0.4-0.4,0.6-0.7S116.1,40.9,116.2,40.3z"></path>
									<path class="st1" d="M119.4,42.7l2.7-0.1v4.5c0,0.4,0.1,0.7,0.2,0.9c0.1,0.2,0.3,0.4,0.5,0.5c0.2,0.1,0.5,0.2,0.8,0.2
									c0.4,0,0.8-0.1,1.3-0.3s0.9-0.5,1.4-0.9v-3.3c0-0.3,0-0.6-0.1-0.7c-0.1-0.1-0.1-0.2-0.3-0.3c-0.1-0.1-0.3-0.1-0.6-0.1h-0.5v-0.6
									l2.7-0.1v5.2c0,0.3,0,0.6,0.1,0.7c0.1,0.1,0.1,0.2,0.2,0.3c0.1,0.1,0.3,0.1,0.7,0.1h0.2v0.6l-2.3,0.1v-1.3
									c-0.6,0.5-1.2,0.9-1.7,1.1c-0.5,0.2-1,0.3-1.5,0.3c-0.4,0-0.7,0-1-0.1c-0.3-0.1-0.5-0.2-0.7-0.4c-0.2-0.2-0.4-0.4-0.5-0.7
									c-0.1-0.3-0.2-0.6-0.2-0.9v-3.2c0-0.3,0-0.5-0.1-0.6s-0.1-0.2-0.3-0.3c-0.1-0.1-0.3-0.1-0.5-0.1h-0.6V42.7z"></path>
									<path class="st1" d="M129.6,43.7v-0.6c0.3,0,0.6-0.1,0.9-0.2c0.3-0.1,0.6-0.2,0.9-0.4h0.5v1.3c0.3-0.4,0.7-0.7,1.2-1
									s0.8-0.4,1.2-0.4c0.3,0,0.6,0.1,0.8,0.2s0.3,0.4,0.3,0.6c0,0.2-0.1,0.3-0.2,0.4c-0.1,0.1-0.3,0.2-0.5,0.2c-0.1,0-0.2,0-0.2,0
									c-0.1,0-0.2-0.1-0.3-0.2c-0.3-0.2-0.5-0.3-0.6-0.3c-0.2,0-0.5,0.1-0.8,0.3c-0.4,0.3-0.6,0.5-0.8,0.7v3.2c0,0.3,0,0.5,0,0.6
									s0.1,0.2,0.2,0.3c0.1,0.1,0.2,0.1,0.3,0.2c0.1,0,0.3,0,0.5,0h0.2v0.6h-3.6v-0.6h0.3c0.3,0,0.5,0,0.6-0.1c0.1-0.1,0.2-0.2,0.3-0.3
									s0.1-0.3,0.1-0.7v-4.1H129.6z"></path>
									<path class="st1" d="M141.9,47.7l0.5,0.4c-0.3,0.4-0.7,0.7-1,1c-0.3,0.2-0.6,0.4-0.9,0.5c-0.3,0.1-0.6,0.1-1,0.1
									c-0.7,0-1.3-0.1-1.8-0.4c-0.6-0.3-1-0.7-1.3-1.3c-0.3-0.5-0.4-1.1-0.4-1.8c0-0.7,0.1-1.4,0.4-1.9c0.3-0.5,0.7-0.9,1.2-1.2
									s1.1-0.5,1.8-0.5c0.5,0,0.9,0.1,1.3,0.2c0.4,0.2,0.7,0.4,0.9,0.7c0.3,0.3,0.4,0.7,0.6,1.1c0.1,0.2,0.1,0.5,0.1,0.9h-5
									c0,0.2,0,0.4,0,0.5c0,0.6,0.1,1.1,0.3,1.6c0.2,0.5,0.5,0.8,0.8,1c0.3,0.2,0.7,0.3,1.2,0.3c0.4,0,0.7-0.1,1.1-0.3
									S141.5,48.2,141.9,47.7z M141,44.8c-0.1-0.4-0.2-0.8-0.3-1c-0.1-0.2-0.3-0.4-0.5-0.5c-0.2-0.1-0.5-0.2-0.8-0.2
									c-0.3,0-0.6,0.1-0.8,0.2c-0.3,0.1-0.5,0.3-0.6,0.5c-0.2,0.2-0.3,0.5-0.4,0.9H141z"></path>
									<path class="st1" d="M148.2,42.7h0.5l0.6,2.1l-0.6,0.2c-0.3-0.6-0.6-1-1.1-1.4s-0.9-0.5-1.4-0.5c-0.4,0-0.7,0.1-0.9,0.3
									c-0.2,0.2-0.3,0.4-0.3,0.6c0,0.2,0.1,0.4,0.2,0.6c0.2,0.2,0.5,0.3,1.1,0.5l1.4,0.5c0.8,0.3,1.3,0.6,1.6,0.9
									c0.3,0.3,0.4,0.7,0.4,1.1c0,0.3-0.1,0.7-0.3,1c-0.2,0.3-0.5,0.6-0.9,0.8c-0.4,0.2-0.8,0.3-1.3,0.3c-0.8,0-1.5-0.2-2-0.7l-0.1,0.5
									h-0.5l-0.9-2.3l0.6-0.3c0.4,0.7,0.8,1.2,1.2,1.4c0.5,0.4,1.1,0.6,1.7,0.6c0.4,0,0.7-0.1,1-0.3s0.4-0.5,0.4-0.7
									c0-0.2-0.1-0.4-0.2-0.6c-0.2-0.2-0.5-0.4-1-0.5l-1.6-0.6c-0.7-0.3-1.2-0.5-1.5-0.8c-0.3-0.3-0.4-0.6-0.4-1c0-0.5,0.2-0.9,0.7-1.3
									c0.4-0.4,1-0.5,1.7-0.5c0.4,0,0.7,0,1,0.1c0.3,0.1,0.6,0.2,0.8,0.5L148.2,42.7z"></path>
									<path class="st1" d="M155.4,40.4v-0.6c0.3,0,0.6-0.1,0.9-0.2c0.3-0.1,0.6-0.2,1-0.4h0.5v4.3c0.4-0.3,0.8-0.5,1.3-0.7
									c0.4-0.2,0.9-0.2,1.3-0.2c0.5,0,1,0.1,1.5,0.4c0.4,0.3,0.8,0.7,1.1,1.2c0.3,0.5,0.4,1.1,0.4,1.8c0,1.1-0.3,2-1,2.7
									c-0.6,0.7-1.3,1-2.3,1c-0.5,0-1-0.1-1.5-0.3c-0.3-0.2-0.6-0.4-0.9-0.8l-0.4,1h-0.7v-9.1H155.4z M157.8,44.2v2.7
									c0,0.4,0,0.7,0.1,0.9c0.1,0.2,0.2,0.3,0.4,0.5c0.2,0.2,0.4,0.3,0.7,0.4c0.3,0.1,0.5,0.2,0.8,0.2c0.4,0,0.8-0.1,1.1-0.3
									c0.3-0.2,0.6-0.5,0.8-1c0.2-0.4,0.3-0.9,0.3-1.6c0-0.8-0.2-1.5-0.6-2c-0.3-0.4-0.8-0.6-1.4-0.6c-0.3,0-0.6,0.1-0.9,0.2
									C158.6,43.6,158.2,43.9,157.8,44.2z"></path>
									<path class="st1" d="M170.4,47.7l0.4,0.4c-0.3,0.4-0.7,0.7-1,1c-0.3,0.2-0.6,0.4-0.9,0.5c-0.3,0.1-0.6,0.1-1,0.1
									c-0.7,0-1.3-0.1-1.8-0.4c-0.6-0.3-1-0.7-1.3-1.3c-0.3-0.5-0.4-1.1-0.4-1.8c0-0.7,0.1-1.4,0.4-1.9c0.3-0.5,0.7-0.9,1.2-1.2
									c0.5-0.3,1.1-0.5,1.8-0.5c0.5,0,0.9,0.1,1.3,0.2c0.4,0.2,0.7,0.4,0.9,0.7s0.4,0.7,0.6,1.1c0.1,0.2,0.1,0.5,0.1,0.9h-5
									c0,0.2,0,0.4,0,0.5c0,0.6,0.1,1.1,0.3,1.6c0.2,0.5,0.5,0.8,0.8,1c0.3,0.2,0.7,0.3,1.2,0.3c0.4,0,0.7-0.1,1.1-0.3
									S170,48.2,170.4,47.7z M169.5,44.8c-0.1-0.4-0.2-0.8-0.3-1s-0.3-0.4-0.5-0.5c-0.2-0.1-0.5-0.2-0.8-0.2s-0.6,0.1-0.8,0.2
									c-0.3,0.1-0.5,0.3-0.6,0.5c-0.2,0.2-0.3,0.5-0.4,0.9H169.5z"></path>
									<path class="st1" d="M171.3,42.7h3.4v0.6h-0.3c-0.3,0-0.4,0-0.5,0c-0.1,0-0.1,0.1-0.2,0.1s-0.1,0.1-0.1,0.2c0,0.1,0.1,0.3,0.2,0.6
									l1.6,3.8l1.5-3.7c0.2-0.4,0.3-0.7,0.3-0.9c0-0.1,0-0.2-0.1-0.2c-0.1,0-0.3-0.1-0.5-0.1h-0.3v-0.6h2.9v0.6h-0.2
									c-0.3,0-0.5,0-0.5,0.1c-0.1,0-0.2,0.1-0.2,0.2c-0.1,0.1-0.2,0.4-0.4,0.8l-2.6,6c-0.2,0.4-0.4,0.8-0.6,1.2c-0.2,0.4-0.5,0.7-0.9,0.9
									c-0.3,0.2-0.7,0.3-1.1,0.3c-0.5,0-0.9-0.1-1.2-0.3c-0.2-0.2-0.4-0.4-0.4-0.7c0-0.2,0.1-0.3,0.2-0.4c0.1-0.1,0.2-0.2,0.4-0.2
									c0.1,0,0.2,0,0.3,0.1c0.1,0,0.2,0.1,0.4,0.3c0.2,0.2,0.4,0.3,0.5,0.4s0.2,0.1,0.3,0.1c0.2,0,0.4-0.1,0.6-0.2
									c0.2-0.1,0.3-0.3,0.5-0.6c0.2-0.3,0.3-0.7,0.5-1l0.3-0.7l-2.3-5.2c-0.2-0.4-0.3-0.6-0.4-0.7c-0.1-0.1-0.2-0.2-0.3-0.2
									c-0.1,0-0.3,0-0.6,0V42.7z"></path>
									<path class="st1" d="M183.2,42.5c0.7,0,1.3,0.1,1.8,0.4c0.5,0.3,0.9,0.7,1.2,1.3c0.3,0.5,0.4,1.2,0.4,1.9c0,0.7-0.1,1.3-0.4,1.9
									c-0.3,0.5-0.7,1-1.2,1.3c-0.5,0.3-1.1,0.4-1.8,0.4c-1.1,0-2-0.4-2.6-1.1c-0.6-0.7-0.9-1.5-0.9-2.5c0-0.7,0.1-1.3,0.4-1.9
									c0.3-0.5,0.7-1,1.2-1.3C182,42.7,182.6,42.5,183.2,42.5z M183.2,43.2c-0.5,0-1,0.2-1.4,0.6c-0.5,0.5-0.7,1.3-0.7,2.3
									c0,1,0.2,1.7,0.6,2.2c0.4,0.5,0.9,0.7,1.5,0.7c0.4,0,0.8-0.1,1.1-0.3s0.6-0.5,0.8-1c0.2-0.5,0.3-1,0.3-1.6c0-0.6-0.1-1.2-0.3-1.6
									c-0.2-0.4-0.4-0.7-0.7-0.9C183.9,43.3,183.6,43.2,183.2,43.2z"></path>
									<path class="st1" d="M187.7,43.7v-0.6c0.4,0,0.7-0.1,0.9-0.2s0.5-0.2,0.9-0.4h0.5v1.3c0.6-0.5,1.1-0.9,1.6-1.1
									c0.4-0.2,0.9-0.3,1.3-0.3c0.4,0,0.7,0.1,1,0.2s0.5,0.3,0.7,0.5c0.2,0.2,0.3,0.5,0.4,0.8c0,0.2,0.1,0.4,0.1,0.8v3.1
									c0,0.4,0,0.6,0.1,0.7s0.1,0.2,0.3,0.2c0.1,0,0.4,0.1,0.9,0.1v0.6h-3.6v-0.6h0.2c0.3,0,0.6,0,0.7-0.1c0.1-0.1,0.2-0.1,0.3-0.3
									c0.1-0.1,0.1-0.4,0.1-0.7v-2.6c0-0.5,0-0.9-0.1-1.1s-0.2-0.4-0.4-0.5c-0.2-0.1-0.5-0.2-0.8-0.2c-0.4,0-0.8,0.1-1.2,0.3
									c-0.4,0.2-0.8,0.5-1.3,0.9v3.2c0,0.4,0,0.6,0.1,0.7c0.1,0.1,0.1,0.2,0.3,0.3c0.1,0,0.3,0.1,0.7,0.1h0.2v0.6h-3.6v-0.6h0.2
									c0.3,0,0.6,0,0.7-0.1s0.2-0.2,0.3-0.3c0-0.1,0-0.3,0-0.8v-4H187.7z"></path>
									<path class="st1" d="M201.6,40.4v-0.6c0.3,0,0.6-0.1,0.9-0.2s0.6-0.2,1-0.4h0.5v8.5c0,0.4,0,0.6,0,0.7c0,0.2,0.1,0.3,0.2,0.4
									s0.3,0.1,0.7,0.1h0.3v0.6l-2.4,0.1v-1.1c-0.5,0.4-0.9,0.7-1.3,0.9c-0.4,0.2-0.8,0.3-1.2,0.3c-0.8,0-1.6-0.3-2.1-1
									c-0.6-0.7-0.8-1.5-0.8-2.5c0-0.7,0.1-1.3,0.4-1.9c0.3-0.6,0.7-1,1.2-1.3c0.5-0.3,1-0.4,1.6-0.4c0.4,0,0.9,0.1,1.2,0.2
									c0.4,0.2,0.7,0.4,1,0.7v-3.1H201.6z M202.8,47.8v-2.7c0-0.4-0.1-0.7-0.2-0.9s-0.4-0.5-0.7-0.6c-0.3-0.2-0.7-0.3-1-0.3
									c-0.4,0-0.8,0.1-1.1,0.3c-0.3,0.2-0.6,0.5-0.8,1c-0.2,0.4-0.3,0.9-0.3,1.5c0,0.6,0.1,1,0.3,1.5c0.2,0.4,0.4,0.7,0.7,0.9
									c0.3,0.2,0.6,0.3,0.9,0.3c0.3,0,0.7-0.1,1.1-0.3C202.1,48.4,202.4,48.1,202.8,47.8z"></path>
									<path class="st1" d="M210.6,40.4v-0.6c0.3,0,0.6-0.1,0.9-0.2c0.3-0.1,0.6-0.2,1-0.4h0.5v4.3c0.4-0.3,0.8-0.5,1.3-0.7
									c0.4-0.2,0.9-0.2,1.3-0.2c0.5,0,1,0.1,1.5,0.4c0.4,0.3,0.8,0.7,1,1.2c0.3,0.5,0.4,1.1,0.4,1.8c0,1.1-0.3,2-1,2.7
									c-0.6,0.7-1.3,1-2.3,1c-0.5,0-1-0.1-1.5-0.3c-0.3-0.2-0.6-0.4-0.9-0.8l-0.4,1h-0.7v-9.1H210.6z M213,44.2v2.7c0,0.4,0,0.7,0.1,0.9
									c0.1,0.2,0.2,0.3,0.4,0.5c0.2,0.2,0.4,0.3,0.7,0.4c0.3,0.1,0.5,0.2,0.8,0.2c0.4,0,0.8-0.1,1.1-0.3c0.3-0.2,0.6-0.5,0.8-1
									c0.2-0.4,0.3-0.9,0.3-1.6c0-0.8-0.2-1.5-0.6-2c-0.3-0.4-0.8-0.6-1.4-0.6c-0.3,0-0.6,0.1-0.9,0.2C213.9,43.6,213.5,43.9,213,44.2z"></path>
									<path class="st1" d="M223.2,42.5c0.7,0,1.3,0.1,1.8,0.4c0.5,0.3,0.9,0.7,1.2,1.3c0.3,0.5,0.4,1.2,0.4,1.9c0,0.7-0.1,1.3-0.4,1.9
									c-0.3,0.5-0.7,1-1.2,1.3c-0.5,0.3-1.1,0.4-1.8,0.4c-1.1,0-2-0.4-2.6-1.1c-0.6-0.7-0.9-1.5-0.9-2.5c0-0.7,0.1-1.3,0.4-1.9
									c0.3-0.5,0.7-1,1.2-1.3C222,42.7,222.6,42.5,223.2,42.5z M223.2,43.2c-0.5,0-1,0.2-1.4,0.6c-0.5,0.5-0.7,1.3-0.7,2.3
									c0,1,0.2,1.7,0.6,2.2c0.4,0.5,0.9,0.7,1.5,0.7c0.4,0,0.8-0.1,1.1-0.3s0.6-0.5,0.8-1c0.2-0.5,0.3-1,0.3-1.6c0-0.6-0.1-1.2-0.3-1.6
									c-0.2-0.4-0.4-0.7-0.7-0.9C223.9,43.3,223.6,43.2,223.2,43.2z"></path>
									<path class="st1" d="M227.7,43.7v-0.6c0.3,0,0.6-0.1,0.9-0.2c0.3-0.1,0.6-0.2,0.9-0.4h0.5v1.3c0.3-0.4,0.7-0.7,1.2-1
									s0.8-0.4,1.2-0.4c0.3,0,0.6,0.1,0.8,0.2c0.2,0.2,0.3,0.4,0.3,0.6c0,0.2-0.1,0.3-0.2,0.4s-0.3,0.2-0.5,0.2c-0.1,0-0.2,0-0.2,0
									s-0.1-0.1-0.3-0.2c-0.3-0.2-0.5-0.3-0.6-0.3c-0.2,0-0.5,0.1-0.8,0.3c-0.4,0.3-0.6,0.5-0.8,0.7v3.2c0,0.3,0,0.5,0,0.6
									s0.1,0.2,0.2,0.3c0.1,0.1,0.2,0.1,0.3,0.2c0.1,0,0.3,0,0.5,0h0.2v0.6h-3.6v-0.6h0.3c0.3,0,0.5,0,0.6-0.1c0.1-0.1,0.2-0.2,0.3-0.3
									s0.1-0.3,0.1-0.7v-4.1H227.7z"></path>
									<path class="st1" d="M238.5,40.4v-0.6c0.3,0,0.6-0.1,0.9-0.2s0.6-0.2,1-0.4h0.5v8.5c0,0.4,0,0.6,0,0.7c0,0.2,0.1,0.3,0.2,0.4
									s0.3,0.1,0.7,0.1h0.3v0.6l-2.4,0.1v-1.1c-0.5,0.4-0.9,0.7-1.3,0.9c-0.4,0.2-0.8,0.3-1.2,0.3c-0.8,0-1.6-0.3-2.1-1s-0.8-1.5-0.8-2.5
									c0-0.7,0.1-1.3,0.4-1.9s0.7-1,1.2-1.3c0.5-0.3,1-0.4,1.6-0.4c0.4,0,0.9,0.1,1.2,0.2c0.4,0.2,0.7,0.4,1,0.7v-3.1H238.5z M239.6,47.8
									v-2.7c0-0.4-0.1-0.7-0.2-0.9c-0.1-0.2-0.4-0.5-0.7-0.6c-0.3-0.2-0.7-0.3-1-0.3c-0.4,0-0.8,0.1-1.1,0.3s-0.6,0.5-0.8,1
									c-0.2,0.4-0.3,0.9-0.3,1.5c0,0.6,0.1,1,0.3,1.5c0.2,0.4,0.4,0.7,0.7,0.9c0.3,0.2,0.6,0.3,0.9,0.3c0.3,0,0.7-0.1,1.1-0.3
									C238.9,48.4,239.3,48.1,239.6,47.8z"></path>
									<path class="st1" d="M249,47.7l0.4,0.4c-0.3,0.4-0.7,0.7-1,1c-0.3,0.2-0.6,0.4-0.9,0.5c-0.3,0.1-0.6,0.1-1,0.1
									c-0.7,0-1.3-0.1-1.8-0.4c-0.6-0.3-1-0.7-1.3-1.3c-0.3-0.5-0.4-1.1-0.4-1.8c0-0.7,0.1-1.4,0.4-1.9c0.3-0.5,0.7-0.9,1.2-1.2
									c0.5-0.3,1.1-0.5,1.8-0.5c0.5,0,0.9,0.1,1.3,0.2c0.4,0.2,0.7,0.4,0.9,0.7s0.4,0.7,0.6,1.1c0.1,0.2,0.1,0.5,0.1,0.9h-5
									c0,0.2,0,0.4,0,0.5c0,0.6,0.1,1.1,0.3,1.6c0.2,0.5,0.5,0.8,0.8,1c0.3,0.2,0.7,0.3,1.2,0.3c0.4,0,0.7-0.1,1.1-0.3
									S248.5,48.2,249,47.7z M248.1,44.8c-0.1-0.4-0.2-0.8-0.3-1s-0.3-0.4-0.5-0.5c-0.2-0.1-0.5-0.2-0.8-0.2s-0.6,0.1-0.8,0.2
									c-0.3,0.1-0.5,0.3-0.6,0.5c-0.2,0.2-0.3,0.5-0.4,0.9H248.1z"></path>
									<path class="st1" d="M250.5,43.7v-0.6c0.3,0,0.6-0.1,0.9-0.2c0.3-0.1,0.6-0.2,0.9-0.4h0.5v1.3c0.3-0.4,0.7-0.7,1.2-1
									s0.8-0.4,1.2-0.4c0.3,0,0.6,0.1,0.8,0.2s0.3,0.4,0.3,0.6c0,0.2-0.1,0.3-0.2,0.4c-0.1,0.1-0.3,0.2-0.5,0.2c-0.1,0-0.2,0-0.2,0
									c-0.1,0-0.2-0.1-0.3-0.2c-0.3-0.2-0.5-0.3-0.6-0.3c-0.2,0-0.5,0.1-0.8,0.3c-0.4,0.3-0.6,0.5-0.8,0.7v3.2c0,0.3,0,0.5,0,0.6
									s0.1,0.2,0.2,0.3c0.1,0.1,0.2,0.1,0.3,0.2c0.1,0,0.3,0,0.5,0h0.2v0.6h-3.6v-0.6h0.3c0.3,0,0.5,0,0.6-0.1c0.1-0.1,0.2-0.2,0.3-0.3
									s0.1-0.3,0.1-0.7v-4.1H250.5z"></path>
									<path class="st1" d="M261.6,42.7h0.5l0.6,2.1l-0.6,0.2c-0.3-0.6-0.6-1-1.1-1.4s-0.9-0.5-1.4-0.5c-0.4,0-0.7,0.1-0.9,0.3
									c-0.2,0.2-0.3,0.4-0.3,0.6c0,0.2,0.1,0.4,0.2,0.6c0.2,0.2,0.5,0.3,1.1,0.5l1.4,0.5c0.8,0.3,1.3,0.6,1.6,0.9
									c0.3,0.3,0.4,0.7,0.4,1.1c0,0.3-0.1,0.7-0.3,1c-0.2,0.3-0.5,0.6-0.9,0.8c-0.4,0.2-0.8,0.3-1.3,0.3c-0.8,0-1.5-0.2-2-0.7l-0.1,0.5
									h-0.5l-0.9-2.3l0.6-0.3c0.4,0.7,0.8,1.2,1.2,1.4c0.5,0.4,1.1,0.6,1.7,0.6c0.4,0,0.7-0.1,1-0.3s0.4-0.5,0.4-0.7
									c0-0.2-0.1-0.4-0.2-0.6c-0.2-0.2-0.5-0.4-1-0.5l-1.6-0.6c-0.7-0.3-1.2-0.5-1.5-0.8c-0.3-0.3-0.4-0.6-0.4-1c0-0.5,0.2-0.9,0.7-1.3
									c0.4-0.4,1-0.5,1.7-0.5c0.4,0,0.7,0,1,0.1c0.3,0.1,0.6,0.2,0.8,0.5L261.6,42.7z"></path>
								</g>
								<g>
									<g class="st0">
										<path class="st1" d="M77.1,13.9c-0.6,0-1,0.2-1.2,0.6c-0.3,0.4-0.4,1-0.4,1.8v2.1h-3.3V9.9h13.9v8.6h-3.2v-2.1
										c0-0.9-0.1-1.5-0.4-1.8c-0.3-0.4-0.7-0.6-1.3-0.6l0,11.4c0,0.9,0.1,1.4,0.2,1.7s0.4,0.4,0.7,0.5v3.6h-5.9v-3.6
										c0.3-0.1,0.6-0.3,0.7-0.5c0.1-0.3,0.2-0.8,0.2-1.7V13.9z"></path>
										<path class="st1" d="M93,25.3c0,0.9,0.1,1.4,0.2,1.7s0.4,0.4,0.7,0.5v3.6H88v-3.6c0.3-0.1,0.6-0.3,0.7-0.5
										c0.1-0.3,0.2-0.8,0.2-1.7v-9.8c0-0.9-0.1-1.4-0.2-1.7c-0.1-0.3-0.4-0.4-0.7-0.5V9.9h6.9c2,0,3.5,0.5,4.4,1.5
										c0.9,1,1.4,2.5,1.4,4.6c0,1.3-0.2,2.4-0.7,3.2c-0.5,0.8-1.1,1.4-2,1.7c0.8,0.2,1.4,0.6,1.8,1.1c0.3,0.5,0.5,1.2,0.5,2.3v1.1
										c0,0.8,0.1,1.3,0.2,1.6c0.1,0.3,0.3,0.5,0.6,0.5v3.6h-4.4c-0.1-0.3-0.2-0.7-0.3-1.1c-0.1-0.4-0.1-1.1-0.1-2v-2.7
										c0-1-0.1-1.7-0.4-2.1c-0.3-0.3-0.8-0.5-1.7-0.5H93V25.3z M93,18.9h1.6c0.7,0,1.3-0.2,1.6-0.6c0.3-0.4,0.5-1,0.5-1.9
										c0-0.9-0.2-1.5-0.5-1.9c-0.3-0.4-0.9-0.6-1.6-0.6H93V18.9z"></path>
										<path class="st1" d="M103.4,31.1v-3.6c0.3-0.1,0.6-0.3,0.7-0.5c0.1-0.3,0.2-0.8,0.2-1.7v-9.8c0-0.9-0.1-1.4-0.2-1.7
										c-0.1-0.3-0.4-0.4-0.7-0.5V9.9h12.4v6.5H112v-0.2c0-0.8-0.2-1.4-0.5-1.7c-0.3-0.3-0.9-0.5-1.6-0.5h-1.5v4.4h4.8v3.6h-4.8V27h1.8
										c0.7,0,1.2-0.2,1.4-0.5s0.4-0.9,0.4-1.8V24h3.8v7.1H103.4z"></path>
										<path class="st1" d="M123.8,9.9v3.4c-0.3,0.1-0.6,0.3-0.7,0.5c-0.1,0.2-0.2,0.8-0.2,1.7v3.6l2.2-4c0.2-0.3,0.3-0.7,0.4-1
										c0.1-0.4,0.1-0.8,0.1-1.4v-0.4V9.9h5v3.4c-0.3,0.1-0.5,0.2-0.7,0.4s-0.4,0.5-0.6,0.8l-2.6,4.8l3.3,7.2c0.2,0.4,0.3,0.6,0.5,0.8
										s0.3,0.2,0.6,0.3v3.6h-5.4v-2.7c0-0.5,0-1-0.1-1.4c-0.1-0.4-0.2-0.8-0.3-1.1l-2.3-5v4.5c0,0.9,0.1,1.4,0.2,1.7s0.4,0.4,0.7,0.5
										v3.6H118v-3.6c0.3-0.1,0.6-0.3,0.7-0.5c0.1-0.3,0.2-0.8,0.2-1.7v-9.8c0-0.9-0.1-1.4-0.2-1.7c-0.1-0.3-0.4-0.4-0.7-0.5V9.9H123.8z"></path>
										<path class="st1" d="M132.6,29.1v-5.3h4v0.4c0,1,0.2,1.8,0.5,2.3c0.3,0.5,0.9,0.7,1.6,0.7c0.5,0,1-0.2,1.3-0.6
										c0.3-0.4,0.5-0.9,0.5-1.6c0-0.6-0.2-1.2-0.5-1.6c-0.4-0.4-1-0.9-1.9-1.3c-0.2-0.1-0.5-0.2-0.9-0.4c-1.4-0.6-2.4-1.2-2.9-1.7
										c-0.6-0.6-1-1.2-1.3-1.9s-0.4-1.5-0.4-2.5c0-1.9,0.5-3.4,1.6-4.5c1.1-1.1,2.5-1.6,4.4-1.6c1.1,0,2.1,0.2,3,0.6
										c1,0.4,1.9,1,2.7,1.7v5h-3.9v-0.4c0-0.9-0.2-1.6-0.5-2.1c-0.3-0.5-0.8-0.7-1.4-0.7c-0.6,0-1,0.2-1.4,0.5c-0.3,0.4-0.5,0.8-0.5,1.4
										c0,0.6,0.2,1,0.6,1.4c0.4,0.4,1.3,0.9,2.7,1.4c1.8,0.8,3.1,1.6,3.8,2.5s1,2.2,1,3.9c0,2-0.5,3.6-1.6,4.8s-2.5,1.8-4.3,1.8
										c-1.2,0-2.2-0.2-3.3-0.6C134.4,30.5,133.5,29.9,132.6,29.1z"></path>
										<path class="st1" d="M154,31.1v-3.6c0.3-0.1,0.6-0.3,0.7-0.5c0.1-0.3,0.2-0.8,0.2-1.7v-9.8c0-0.9-0.1-1.4-0.2-1.7
										c-0.1-0.3-0.4-0.4-0.7-0.5V9.9h12.1v6.5h-3.6v-0.2c0-0.8-0.1-1.4-0.4-1.7c-0.3-0.3-0.8-0.5-1.5-0.5H159v4.3h4.6v3.6H159v3.4
										c0,0.8,0.1,1.4,0.2,1.7c0.1,0.3,0.4,0.5,0.7,0.5v3.6H154z"></path>
										<path class="st1" d="M173,25.3c0,0.9,0.1,1.4,0.2,1.7s0.4,0.4,0.7,0.5v3.6H168v-3.6c0.3-0.1,0.6-0.3,0.7-0.5
										c0.1-0.3,0.2-0.8,0.2-1.7v-9.8c0-0.9-0.1-1.4-0.2-1.7c-0.1-0.3-0.4-0.4-0.7-0.5V9.9h6.9c2,0,3.5,0.5,4.4,1.5
										c0.9,1,1.4,2.5,1.4,4.6c0,1.3-0.2,2.4-0.7,3.2c-0.5,0.8-1.1,1.4-2,1.7c0.8,0.2,1.4,0.6,1.8,1.1c0.3,0.5,0.5,1.2,0.5,2.3v1.1
										c0,0.8,0.1,1.3,0.2,1.6c0.1,0.3,0.3,0.5,0.6,0.5v3.6h-4.4c-0.1-0.3-0.2-0.7-0.3-1.1c-0.1-0.4-0.1-1.1-0.1-2v-2.7
										c0-1-0.1-1.7-0.4-2.1c-0.3-0.3-0.8-0.5-1.7-0.5H173V25.3z M173,18.9h1.6c0.7,0,1.3-0.2,1.6-0.6c0.3-0.4,0.5-1,0.5-1.9
										c0-0.9-0.2-1.5-0.5-1.9c-0.3-0.4-0.9-0.6-1.6-0.6H173V18.9z"></path>
										<path class="st1" d="M183.5,17c0-1.7,0.1-2.9,0.2-3.6c0.1-0.7,0.4-1.3,0.7-1.9c0.5-0.7,1.1-1.2,1.9-1.5s1.8-0.5,3.1-0.5
										c1.2,0,2.3,0.2,3,0.5c0.8,0.3,1.4,0.8,1.9,1.6c0.3,0.5,0.6,1.1,0.7,1.9c0.1,0.7,0.2,1.9,0.2,3.6V24c0,1.7-0.1,2.9-0.2,3.6
										c-0.1,0.7-0.4,1.4-0.7,1.9c-0.5,0.7-1.1,1.2-1.9,1.6c-0.8,0.3-1.8,0.5-3,0.5c-1.3,0-2.3-0.2-3.1-0.5c-0.8-0.3-1.4-0.9-1.9-1.6
										c-0.3-0.5-0.6-1.1-0.7-1.8c-0.1-0.7-0.2-1.9-0.2-3.7V17z M187.6,16.9v7.3c0,1.1,0.1,1.9,0.4,2.4c0.3,0.5,0.8,0.7,1.4,0.7
										c0.6,0,1.1-0.2,1.4-0.7c0.3-0.5,0.4-1.3,0.4-2.4v-7.3c0-1.1-0.1-1.9-0.4-2.4c-0.3-0.5-0.8-0.7-1.4-0.7c-0.7,0-1.1,0.2-1.4,0.7
										C187.7,15,187.6,15.8,187.6,16.9z"></path>
										<path class="st1" d="M197.8,31.1l0-3.6c0.3-0.1,0.6-0.2,0.7-0.5c0.1-0.3,0.2-0.8,0.2-1.7V15.2c0-0.6-0.1-1.1-0.2-1.3
										c-0.1-0.3-0.4-0.4-0.7-0.5l0-3.4h4.6l4.4,11.9v-6.3c0-0.8-0.1-1.3-0.2-1.6s-0.4-0.5-0.7-0.6V9.9h5.6v3.4c-0.4,0.1-0.6,0.3-0.7,0.6
										c-0.1,0.3-0.2,0.9-0.2,1.8v15.4h-3.7l-4.4-12v6.3c0,0.8,0.1,1.3,0.2,1.6c0.1,0.3,0.4,0.5,0.7,0.5l0,3.6H197.8z"></path>
										<path class="st1" d="M218.1,13.9c-0.6,0-1,0.2-1.2,0.6c-0.3,0.4-0.4,1-0.4,1.8v2.1h-3.3V9.9h13.9v8.6h-3.2v-2.1
										c0-0.9-0.1-1.5-0.4-1.8s-0.7-0.6-1.3-0.6l0,11.4c0,0.9,0.1,1.4,0.2,1.7s0.4,0.4,0.7,0.5v3.6h-5.9v-3.6c0.3-0.1,0.6-0.3,0.7-0.5
										c0.1-0.3,0.2-0.8,0.2-1.7V13.9z"></path>
										<path class="st1" d="M234,25.3c0,0.9,0.1,1.4,0.2,1.7s0.4,0.4,0.7,0.5v3.6H229v-3.6c0.3-0.1,0.6-0.3,0.7-0.5
										c0.1-0.3,0.2-0.8,0.2-1.7v-9.8c0-0.9-0.1-1.4-0.2-1.7c-0.1-0.3-0.4-0.4-0.7-0.5V9.9h5.9v3.4c-0.3,0.1-0.6,0.3-0.7,0.5
										c-0.1,0.3-0.2,0.8-0.2,1.7V25.3z"></path>
										<path class="st1" d="M237.3,31.1v-3.6c0.3-0.1,0.6-0.3,0.7-0.5c0.1-0.3,0.2-0.8,0.2-1.7v-9.8c0-0.9-0.1-1.4-0.2-1.7
										c-0.1-0.3-0.4-0.4-0.7-0.5V9.9h12.4v6.5h-3.8v-0.2c0-0.8-0.2-1.4-0.5-1.7c-0.3-0.3-0.9-0.5-1.6-0.5h-1.5v4.4h4.8v3.6h-4.8V27h1.8
										c0.7,0,1.2-0.2,1.4-0.5s0.4-0.9,0.4-1.8V24h3.8v7.1H237.3z"></path>
										<path class="st1" d="M257,25.3c0,0.9,0.1,1.4,0.2,1.7s0.4,0.4,0.7,0.5v3.6H252v-3.6c0.3-0.1,0.6-0.3,0.7-0.5
										c0.1-0.3,0.2-0.8,0.2-1.7v-9.8c0-0.9-0.1-1.4-0.2-1.7c-0.1-0.3-0.4-0.4-0.7-0.5V9.9h6.9c2,0,3.5,0.5,4.4,1.5
										c0.9,1,1.4,2.5,1.4,4.6c0,1.3-0.2,2.4-0.7,3.2c-0.5,0.8-1.1,1.4-2,1.7c0.8,0.2,1.4,0.6,1.8,1.1c0.3,0.5,0.5,1.2,0.5,2.3v1.1
										c0,0.8,0.1,1.3,0.2,1.6c0.1,0.3,0.3,0.5,0.6,0.5v3.6h-4.4c-0.1-0.3-0.2-0.7-0.3-1.1c-0.1-0.4-0.1-1.1-0.1-2v-2.7
										c0-1-0.1-1.7-0.4-2.1s-0.8-0.5-1.7-0.5H257V25.3z M257,18.9h1.6c0.8,0,1.3-0.2,1.6-0.6s0.5-1,0.5-1.9c0-0.9-0.2-1.5-0.5-1.9
										c-0.3-0.4-0.9-0.6-1.6-0.6H257V18.9z"></path>
									</g>
									<g>
										<rect x="0.9" y="0.7" class="st1" width="59.5" height="51.7"></rect>
									</g>
								</g>
								<g>
									<!-- <image style="overflow:visible;opacity:0.1;enable-background:new    ;" width="154" height="233" xlink:href="CA73D1AB.png"  transform="matrix(0.2355 0 0 0.2355 17.9064 0.1654)">
									</image> -->
									<g>
										<path class="st2" d="M50.1,13.9L50.1,13.9L45.8,14c0-0.2,0-0.5,0-0.7c-0.3-2.3-2.3-4-4.6-4c-2.6,0-4.7,2.1-4.7,4.7v31v0.1
										c0,0.1,0,0.2,0,0.3v0.2c0,0,0,0,0,0.1c-0.1,1.8-0.6,3.5-1.6,4.9c0,0.1-0.1,0.1-0.1,0.2c-0.1,0.1-0.2,0.3-0.3,0.5
										c-0.2,0.3-0.5,0.5-0.7,0.8c-0.1,0.1-0.3,0.2-0.4,0.4l0,0l-0.1,0.1H21.1c-1.8-1.6-3-3.9-3.2-6.4c0-0.1,0-0.3,0-0.4v-0.7V0.9h4.6
										v36.6v7.8c0,0.2,0,0.4,0,0.6c0.2,2.4,2.2,4.2,4.7,4.2c1.9,0,3.6-1.2,4.3-2.9l0,0c0.2-0.6,0.4-1.2,0.4-1.8c0,0,0-0.1,0-0.2
										c0-0.1,0-0.1,0-0.1V13.7c0-0.2,0-0.3,0-0.5c0.3-4.8,4.2-8.7,9.1-8.7c4,0,7.4,2.6,8.6,6.2C49.9,11.6,50.1,12.7,50.1,13.9z"></path>
									</g>
								</g>
								<g>
									<!-- <image style="overflow:visible;opacity:0.1;enable-background:new    ;" width="267" height="104" xlink:href="CA73D1A9.png"  transform="matrix(0.2355 0 0 0.2355 0.4012 16.0745)"> -->
									
									<g>
										<path class="st2" d="M59.5,16.9v0.6c-0.6,0-1.2,0.1-1.8,0.1c-7.5,0.5-14.7,1.9-21.3,3.7c-1.6,0.4-3.1,0.9-4.6,1.4
										c-3.2,1-6.3,2.2-9.2,3.3c-1.6,0.7-3.2,1.3-4.6,2c-8,3.7-14.2,7.4-18,9.9v-7.4c3.7-2,9.9-5,18-7.6c1.5-0.5,3-1,4.6-1.4
										c2.8-0.8,5.9-1.5,9.1-2.2c1.5-0.3,3-0.6,4.6-0.8c6.5-1.1,13.6-1.7,21.3-1.6L59.5,16.9z"></path>
									</g>
								</g>
							</svg>